<svg width="255" height="185" viewBox="0 0 255 185" fill="none" xmlns="http://www.w3.org/2000/svg">
<g clip-path="url(#clip0_692_929)">
<path d="M255 101.856C255 102.036 254.855 102.182 254.675 102.182H0V101.531H254.675C254.855 101.531 255 101.676 255 101.856Z" fill="#E6E6E6"/>
<path d="M83.7386 22.8295C89.054 22.8295 93.363 18.5087 93.363 13.1789C93.363 7.84902 89.054 3.52832 83.7386 3.52832C78.4232 3.52832 74.1142 7.84902 74.1142 13.1789C74.1142 18.5087 78.4232 22.8295 83.7386 22.8295Z" fill="#FFB6B6"/>
<path d="M88.8386 24.8657L76.1703 28.4951L74.3606 32.5781L70.2886 52.0858V82.9353C70.2886 82.9353 65.3118 93.8233 68.0264 103.35C70.9281 113.534 81.1472 101.514 88.8386 102.886C96.5301 104.258 108.746 105.619 108.746 105.619L101.507 72.5009L99.6972 32.1244L88.8386 24.8657Z" fill="#E6E6E6"/>
<path d="M86.448 16.3392L84.4913 15.3582C84.4913 15.3582 84.0021 10.9435 83.0237 9.96252C82.0454 8.98149 82.0454 8.49098 82.0454 8.49098L83.5129 6.52892C83.5129 6.52892 76.1752 10.453 74.7076 8.00046C73.24 5.5479 75.1968 4.56687 75.1968 4.56687L72.7509 2.60482C72.7509 2.60482 75.686 4.56687 76.1751 3.09533C76.6643 1.62379 79.5994 0.625382 79.5994 0.625382C79.5994 0.625382 86.0089 2.07954 85.4947 0.625382C84.9805 -0.828778 86.9372 0.642764 87.4264 1.13328C87.9156 1.62379 92.3182 6.52892 92.8074 6.03841C93.2966 5.5479 95.7425 7.01943 95.2533 7.50995C94.7642 8.00047 94.7642 8.49098 95.2533 8.98149C95.7425 9.47201 98.6776 14.8677 96.2317 16.8297C93.7858 18.7918 90.3615 21.2443 90.8507 23.2064C91.3399 25.1684 90.8507 16.8297 86.448 16.3392Z" fill="#2F2E41"/>
<path d="M39.0041 40.6368C36.5339 38.5016 35.6303 35.4928 36.9857 33.9166C38.3412 32.3405 41.442 32.794 43.9128 34.9304C44.9115 35.7702 45.6951 36.8376 46.198 38.0433L56.5506 47.2229L52.151 52.0024L42.4123 42.4455C41.1485 42.1242 39.9798 41.504 39.0041 40.6368Z" fill="#FFB6B6"/>
<path d="M74.4692 32.7342L81.2885 32.1125L87.2689 60.7119C88.4085 66.1615 84.846 71.4819 79.3843 72.4871L74.4692 73.3918L43.1423 45.7345L47.7191 38.084L70.8213 52.6151L74.4692 32.7342Z" fill="#E6E6E6"/>
<path d="M59.2448 159.919C59.2448 159.919 53.836 169.991 54.2224 169.604C54.6087 169.217 61.1765 171.541 61.1765 171.541L65.0399 161.469L59.2448 159.919Z" fill="#FFB6B6"/>
<path d="M51.2616 89.416C51.2616 89.416 48.4929 100.513 48.7722 100.043C49.0515 99.5718 55.9878 100.203 55.9878 100.203L57.2588 89.487L51.2616 89.416Z" fill="#FFB6B6"/>
<path d="M99.4242 87.5499C87.2011 89.2717 76.1607 87.7706 67.1648 80.698C67.1648 80.698 60.597 102.779 72.5736 105.104C84.5501 107.428 97.8789 103.433 99.4242 99.559C100.97 95.6851 99.4242 87.5499 99.4242 87.5499Z" fill="#2F2E41"/>
<path d="M76.6301 94.5229L63.3014 126.023L57.1199 162.437L65.2331 164.374L79.7452 130.865L99.4242 98.7842L76.6301 94.5229Z" fill="#2F2E41"/>
<path d="M74.8916 85.5404C74.8916 85.5404 71.8009 61.5222 66.0058 59.9727C63.1806 59.2173 60.5391 59.2904 58.5736 59.5639C56.5926 59.8395 55.0134 61.3571 54.667 63.3322L49.4008 93.3608H56.8477L59.2448 85.2256L65.6194 96.3873L74.8916 85.5404Z" fill="#2F2E41"/>
<path d="M55.9609 97.162L48.5976 96.3872L47.4614 100.649C47.4614 100.649 35.4849 111.495 41.6663 112.27C47.8478 113.045 53.6429 108.784 53.6429 108.784L62.1462 103.893C62.1462 103.893 58.8585 95.104 56.5404 95.104C54.2224 95.104 55.9609 97.162 55.9609 97.162Z" fill="#2F2E41"/>
<path d="M59.8243 169.798L52.4611 169.023L51.3248 173.284C51.3248 173.284 39.3483 184.131 45.5297 184.906C51.7112 185.681 57.5063 181.419 57.5063 181.419L66.0096 176.528C66.0096 176.528 65.4263 167.352 63.1082 167.352C60.7902 167.352 59.8243 169.798 59.8243 169.798Z" fill="#2F2E41"/>
<path d="M97.107 111.153C96.2192 114.206 93.9285 116.222 91.9908 115.655C90.0531 115.088 89.2024 112.154 90.091 109.1C90.4292 107.875 91.0551 106.749 91.9162 105.816L95.8408 92.9275L101.834 94.9031L97.3283 107.399C97.5546 108.65 97.4787 109.938 97.107 111.153Z" fill="#FFB6B6"/>
<path d="M101.255 32.1806L98.1302 31.2969C95.1837 37.1753 93.9167 43.7565 94.4694 50.3122L96.0116 68.6049L90.9229 100.757L100.897 103.345L108.756 62.9948L101.255 32.1806Z" fill="#E6E6E6"/>
<path d="M40.4218 82.4502C40.2849 82.0304 39.2478 82.2152 39.1482 81.8397C39.049 81.4655 40.0442 81.1517 40.8075 80.0972C40.9451 79.907 41.8125 78.7086 41.4798 78.2046C40.8493 77.2492 36.462 79.6287 35.4089 78.2934C35.1778 78.0003 35.0827 77.4973 34.3942 76.561C34.1203 76.1885 33.9445 76.0087 33.7346 76.014C33.4367 76.0216 33.3301 76.3953 32.8618 77.0722C32.1596 78.0875 31.9062 77.96 31.4436 78.7918C31.1002 79.4094 31.0595 79.8039 30.8119 79.8272C30.4614 79.8601 30.3166 79.0913 29.8884 79.0614C29.4515 79.031 29.0142 79.7907 28.7975 80.3842C28.3907 81.498 28.6426 82.3493 28.6984 83.1977C28.7591 84.1197 28.6166 85.4694 27.6176 87.2017L18.1941 102.256C20.2179 99.1873 25.9626 90.8184 28.2772 87.7486C28.9453 86.8625 29.6634 85.9726 30.7685 85.8052C31.8325 85.644 33.1272 86.1719 34.9342 86.1412C35.1452 86.1376 35.7326 86.1201 35.8754 85.8079C35.9935 85.5499 35.7003 85.3255 35.807 85.0829C35.9501 84.7576 36.5939 84.8972 37.4712 84.6811C38.0899 84.5287 38.5102 84.2769 38.8717 84.0604C38.9806 83.9952 40.6039 83.0092 40.4218 82.4502Z" fill="#F2F2F2"/>
<path d="M15.74 85.9652C15.495 85.9114 15.2862 86.4751 15.0737 86.4157C14.8619 86.3566 14.9954 85.7763 14.6995 85.0964C14.6461 84.9738 14.3098 84.2011 13.9671 84.2194C13.3175 84.2541 13.2164 87.0998 12.2589 87.2328C12.0488 87.262 11.7751 87.1637 11.1182 87.2324C10.8568 87.2597 10.7181 87.2943 10.6601 87.3991C10.5779 87.5479 10.73 87.7082 10.9263 88.134C11.2206 88.7725 11.0851 88.8604 11.3588 89.3281C11.562 89.6753 11.7433 89.8091 11.6833 89.9377C11.5983 90.1197 11.1802 89.9691 11.042 90.1712C10.9011 90.3775 11.1467 90.8119 11.3747 91.0898C11.8025 91.6113 12.2919 91.733 12.7233 91.9503C13.1921 92.1865 13.8116 92.646 14.3713 93.6376L19.0212 102.619C18.1029 100.737 15.6641 95.4956 14.8293 93.4707C14.5883 92.8862 14.36 92.2761 14.5969 91.6839C14.825 91.1138 15.4569 90.6289 15.9633 89.7307C16.0224 89.6258 16.1833 89.3318 16.0717 89.1714C15.9795 89.0388 15.7851 89.1184 15.6971 88.9959C15.5791 88.8316 15.8332 88.555 15.9806 88.0609C16.0845 87.7125 16.0826 87.433 16.0809 87.1926C16.0804 87.1201 16.0661 86.0368 15.74 85.9652Z" fill="#F2F2F2"/>
<path d="M20.379 88.1565L20.5252 86.8034L20.6148 86.7184C21.0296 86.3254 21.289 85.909 21.3864 85.4804C21.4019 85.4123 21.4138 85.3434 21.4261 85.2732C21.4747 84.995 21.5349 84.6491 21.8017 84.2899C21.951 84.0898 22.3459 83.6374 22.7532 83.7954C22.8631 83.8367 22.9373 83.9082 22.9888 83.9839C23.0018 83.9708 23.015 83.9577 23.0292 83.9435C23.2051 83.772 23.3282 83.7092 23.4468 83.6487C23.5379 83.6022 23.6319 83.5543 23.7911 83.4267C23.861 83.3707 23.9169 83.3203 23.964 83.278C24.1069 83.15 24.2897 83.0002 24.5401 83.0595C24.8056 83.1323 24.8966 83.3862 24.9569 83.5542C25.0648 83.854 25.098 84.0602 25.12 84.1969C25.1279 84.2469 25.137 84.3031 25.144 84.3214C25.2021 84.4682 25.9314 84.5062 26.2058 84.5221C26.8226 84.5556 27.3564 84.5847 27.4847 85.0082C27.5768 85.3111 27.3849 85.6416 26.8977 86.0164C26.746 86.1331 26.5943 86.2136 26.4621 86.2737C26.5434 86.3507 26.6082 86.4556 26.6122 86.5983C26.6211 86.9362 26.2755 87.1955 25.5849 87.3703C25.4133 87.4142 25.1825 87.4723 24.8805 87.4576C24.7382 87.4506 24.6136 87.4287 24.5074 87.4083C24.4916 87.469 24.4625 87.5321 24.4102 87.592C24.2565 87.7684 24.0083 87.8133 23.6714 87.7138C23.2994 87.6099 23.0055 87.4686 22.7462 87.3443C22.5197 87.2361 22.3244 87.1436 22.1605 87.1183C21.8557 87.0756 21.5715 87.2643 21.2314 87.5154L20.379 88.1565Z" fill="#F2F2F2"/>
<path d="M22.8115 80.4496L21.4691 80.6511L21.3643 80.5857C20.88 80.2831 20.4125 80.137 19.9744 80.1514C19.9047 80.1536 19.8352 80.1595 19.7644 80.1654C19.4837 80.1889 19.1348 80.2181 18.7206 80.0505C18.4896 79.9565 17.9531 79.6882 18.0022 79.2531C18.0142 79.136 18.0643 79.0459 18.1243 78.9767C18.1083 78.9675 18.0923 78.9579 18.075 78.9478C17.865 78.8206 17.7732 78.7172 17.6848 78.6175C17.6168 78.541 17.5467 78.4619 17.3832 78.3399C17.3115 78.2863 17.2487 78.2449 17.1959 78.2099C17.0362 78.1038 16.8453 77.9644 16.8391 77.7065C16.8419 77.4306 17.0637 77.278 17.2106 77.1768C17.4724 76.9961 17.6629 76.9116 17.7892 76.8556C17.8354 76.8353 17.8873 76.8121 17.9032 76.8007C18.0301 76.7072 17.8817 75.9902 17.8275 75.72C17.7034 75.1132 17.596 74.5881 17.972 74.3562C18.2409 74.1901 18.6084 74.2924 19.0935 74.6698C19.2445 74.7874 19.3607 74.9141 19.4522 75.0271C19.5059 74.9287 19.5906 74.8393 19.7273 74.7992C20.051 74.7049 20.3888 74.9743 20.7325 75.5997C20.8184 75.755 20.9331 75.9642 20.9955 76.2608C21.0248 76.4006 21.0353 76.527 21.0426 76.6352C21.1051 76.6352 21.1734 76.6473 21.2444 76.6829C21.4536 76.7873 21.5598 77.0166 21.5493 77.3686C21.5434 77.7557 21.4816 78.0766 21.4275 78.3597C21.3806 78.6068 21.3409 78.8197 21.3581 78.9851C21.3942 79.2915 21.6483 79.5193 21.9768 79.7855L22.8115 80.4496Z" fill="#F2F2F2"/>
<path d="M22.9924 76.4074L23.1386 75.0543L23.2282 74.9693C23.643 74.5762 23.9024 74.1598 23.9998 73.7313C24.0153 73.6631 24.0273 73.5942 24.0395 73.524C24.0881 73.2458 24.1483 72.9 24.4151 72.5407C24.5644 72.3406 24.9593 71.8883 25.3666 72.0463C25.4765 72.0876 25.5507 72.159 25.6022 72.2348C25.6152 72.2216 25.6284 72.2085 25.6426 72.1943C25.8185 72.0229 25.9416 71.9601 26.0602 71.8996C26.1513 71.8531 26.2453 71.8052 26.4045 71.6775C26.4744 71.6215 26.5303 71.5711 26.5774 71.5288C26.7203 71.4009 26.9031 71.251 27.1535 71.3104C27.419 71.3831 27.51 71.637 27.5704 71.8051C27.6782 72.1049 27.7114 72.311 27.7334 72.4478C27.7413 72.4977 27.7504 72.554 27.7574 72.5723C27.8155 72.7191 28.5448 72.7571 28.8192 72.7729C29.436 72.8065 29.9698 72.8355 30.0981 73.259C30.1902 73.562 29.9983 73.8924 29.5111 74.2673C29.3594 74.3839 29.2077 74.4644 29.0755 74.5245C29.1568 74.6016 29.2216 74.7064 29.2256 74.8492C29.2345 75.1871 28.8889 75.4463 28.1983 75.6211C28.0267 75.6651 27.7959 75.7232 27.4939 75.7085C27.3516 75.7014 27.227 75.6796 27.1208 75.6592C27.105 75.7199 27.0759 75.783 27.0236 75.8429C26.8699 76.0193 26.6217 76.0641 26.2848 75.9647C25.9128 75.8608 25.6189 75.7194 25.3596 75.5952C25.1331 75.487 24.9378 75.3945 24.7739 75.3692C24.4691 75.3264 24.1849 75.5151 23.8448 75.7663L22.9924 76.4074Z" fill="#F2F2F2"/>
<path d="M18.6396 102.334L18.4023 102.098L18.0724 102.063C18.074 102.032 18.0718 101.96 18.0694 101.846C18.0567 101.224 18.0173 99.3291 18.2804 96.4183C18.4641 94.3863 18.7711 92.3238 19.1928 90.2869C19.6152 88.2468 20.0536 86.7288 20.4057 85.5088C20.6715 84.5886 20.9397 83.7158 21.2015 82.8657C21.9003 80.5943 22.5601 78.4487 22.9686 76.0014C23.0601 75.4551 23.25 74.3178 22.8612 72.9756C22.6357 72.1971 22.2495 71.4643 21.7129 70.7983L22.2322 70.3778C22.8243 71.1138 23.2514 71.9253 23.5019 72.7896C23.9329 74.2779 23.726 75.517 23.6266 76.1124C23.2108 78.603 22.5444 80.7692 21.8388 83.0624C21.5783 83.9095 21.3109 84.7785 21.0463 85.6949C20.6974 86.9036 20.2629 88.4084 19.846 90.4223C19.429 92.4348 19.126 94.4722 18.9443 96.4784C18.6847 99.3526 18.7237 101.219 18.7365 101.832C18.7431 102.159 18.7445 102.228 18.6396 102.334Z" fill="#F2F2F2"/>
<path d="M20.2884 71.5684C20.2617 71.5624 20.2348 71.5557 20.2079 71.5477C19.6602 71.3938 19.2209 70.9462 18.9018 70.2177C18.7525 69.8752 18.7172 69.5147 18.6469 68.7957C18.6359 68.6848 18.5871 68.1239 18.647 67.3805C18.686 66.8947 18.7381 66.6996 18.8699 66.5464C19.0163 66.3757 19.2136 66.278 19.422 66.2289C19.4277 66.1646 19.4487 66.1017 19.4903 66.0421C19.6618 65.7947 19.9488 65.8964 20.1045 65.9493C20.183 65.9775 20.2808 66.0134 20.3908 66.032C20.5636 66.062 20.6668 66.0315 20.823 65.9862C20.9725 65.9426 21.1584 65.8885 21.4153 65.8931C21.9223 65.9001 22.2975 66.1286 22.4213 66.2038C23.073 66.5964 23.298 67.2229 23.5584 67.9482C23.6102 68.0936 23.7819 68.6192 23.8219 69.2959C23.8507 69.7842 23.7869 69.984 23.7138 70.1269C23.5643 70.4207 23.3355 70.5569 22.7676 70.8434C22.1743 71.1437 21.8766 71.2939 21.6326 71.3711C21.0646 71.5499 20.708 71.6622 20.2884 71.5684Z" fill="#F2F2F2"/>
<path d="M172.591 14.9313C172.591 14.9313 176.275 17.0979 175.067 19.2405C173.859 21.3832 172.174 24.3017 173.317 25.2209C174.46 26.14 176.347 30.1926 176.347 30.1926C176.347 30.1926 184.4 29.0648 183.644 35.3376C182.888 41.6104 179.105 42.4656 182.347 45.2251C185.59 47.9847 178.977 51.2851 178.977 51.2851C178.977 51.2851 174.412 49.8586 173.37 45.4718C172.329 41.0849 174.299 48.826 173.638 49.3811C172.977 49.9361 170.412 53.5947 168.596 48.7304C166.781 43.8661 168.579 41.9801 166.18 39.1093C163.781 36.2384 162.15 31.5949 162.222 30.7832C162.293 29.9715 159.478 22.5646 163.811 19.676C168.145 16.7874 172.591 14.9313 172.591 14.9313Z" fill="#2F2E41"/>
<path d="M208.882 82.9916C211.022 84.7668 213.669 85.099 214.796 83.7337C215.922 82.3685 215.101 79.8231 212.961 78.0476C212.116 77.3265 211.11 76.819 210.029 76.5673L200.871 69.1604L197.496 73.5439L206.883 80.3804C207.332 81.3984 208.018 82.2938 208.882 82.9916Z" fill="#FFB6B6"/>
<path d="M181.434 42.5964C181.434 42.5964 174.247 37.7768 171.893 40.1401C169.539 42.5034 170.102 48.4062 170.102 48.4062L188.949 70.4317L203.895 79.9574L207.902 73.6651L195.338 62.4227L181.434 42.5964Z" fill="#3F3D56"/>
<path d="M170.899 32.1563L173.506 41.4506H159.194L163.907 29.9987L170.899 32.1563Z" fill="#FFB6B6"/>
<path opacity="0.1" d="M170.899 32.1563L173.506 41.4506H159.194L163.907 29.9987L170.899 32.1563Z" fill="black"/>
<path d="M139.685 100.779C139.5 103.557 140.78 105.905 142.543 106.022C144.307 106.14 145.885 103.983 146.07 101.204C146.159 100.095 145.981 98.9807 145.553 97.9544L146.187 86.1735L140.668 85.9927L140.628 97.6258C140.067 98.5863 139.744 99.6676 139.685 100.779Z" fill="#FFB6B6"/>
<path d="M156.306 54.8277C156.306 54.8277 156.001 46.1633 152.713 45.6314C149.424 45.0995 144.978 49.0093 144.978 49.0093L138.186 77.2211L139.222 94.948L146.656 94.5269L148.401 77.7321L156.306 54.8277Z" fill="#3F3D56"/>
<path d="M188.187 158.37C188.187 158.37 193.596 168.442 193.21 168.054C192.823 167.667 186.256 169.991 186.256 169.991L182.392 159.919L188.187 158.37Z" fill="#FFB6B6"/>
<path d="M196.171 87.8665C196.171 87.8665 198.939 98.9639 198.66 98.4931C198.381 98.0222 191.444 98.6533 191.444 98.6533L190.173 87.9374L196.171 87.8665Z" fill="#FFB6B6"/>
<path d="M174.665 38.3516H161.162L146.463 48.4237L142.213 83.6761L144.531 90.6491L148.781 98.7843C148.781 98.7843 144.531 80.9644 154.962 87.9374C165.393 94.9104 166.166 96.0726 166.166 96.0726L180.074 89.0996L185.29 60.2391L181.426 44.3561L174.665 38.3516Z" fill="#3F3D56"/>
<path d="M148.008 86.0005C160.231 87.7223 171.272 86.2211 180.267 79.1486C180.267 79.1486 186.835 101.23 174.859 103.554C162.882 105.878 149.553 101.883 148.008 98.0096C146.463 94.1357 148.008 86.0005 148.008 86.0005Z" fill="#2F2E41"/>
<path d="M170.802 92.9735L184.131 124.473L190.312 160.888L182.199 162.825L167.687 129.315L148.008 97.2348L170.802 92.9735Z" fill="#2F2E41"/>
<path d="M172.541 83.9908C172.541 83.9908 175.631 59.9727 181.426 58.4231C184.251 57.6677 186.893 57.7409 188.858 58.0143C190.84 58.2899 192.419 59.8076 192.765 61.7827L198.031 91.8113H190.584L188.187 83.6761L181.813 94.8377L172.541 83.9908Z" fill="#2F2E41"/>
<path d="M191.471 95.6126L198.835 94.8378L199.971 99.0991C199.971 99.0991 211.947 109.946 205.766 110.721C199.584 111.496 193.789 107.234 193.789 107.234L185.286 102.343C185.286 102.343 188.574 93.5546 190.892 93.5546C193.21 93.5546 191.471 95.6126 191.471 95.6126Z" fill="#2F2E41"/>
<path d="M187.608 168.248L194.971 167.473L196.107 171.735C196.107 171.735 208.084 182.582 201.902 183.356C195.721 184.131 189.926 179.87 189.926 179.87L181.423 174.979C181.423 174.979 182.006 165.803 184.324 165.803C186.642 165.803 187.608 168.248 187.608 168.248Z" fill="#2F2E41"/>
<path d="M167.498 34.1761C172.259 34.1761 176.118 30.3065 176.118 25.5332C176.118 20.7598 172.259 16.8903 167.498 16.8903C162.738 16.8903 158.879 20.7598 158.879 25.5332C158.879 30.3065 162.738 34.1761 167.498 34.1761Z" fill="#FFB6B6"/>
<path d="M170.802 15.882C170.802 15.882 172.239 19.9154 169.94 20.7796C167.642 21.6439 164.481 22.7963 164.769 24.2368C165.056 25.6773 163.907 29.9987 163.907 29.9987C163.907 29.9987 170.802 34.3202 166.205 38.6416C161.608 42.9631 158.16 41.1823 158.879 45.3858C159.597 49.5893 152.414 47.8607 152.414 47.8607C152.414 47.8607 149.828 43.8274 151.839 39.794C153.851 35.7607 150.403 42.9631 149.541 42.9631C148.679 42.9631 144.369 44.1155 146.093 39.2178C147.817 34.3202 150.403 34.0321 150.403 30.2868C150.403 26.5416 152.127 21.932 152.701 21.3558C153.276 20.7796 155.862 13.2891 161.034 13.8653C166.205 14.4415 170.802 15.882 170.802 15.882Z" fill="#2F2E41"/>
<path d="M95.4657 158.37C95.4657 158.37 90.0569 168.442 90.4433 168.054C90.8296 167.667 97.3974 169.991 97.3974 169.991L101.261 159.919L95.4657 158.37Z" fill="#A0616A"/>
<path d="M135.645 86.0005C123.422 87.7223 112.382 86.2211 103.386 79.1486C103.386 79.1486 96.8179 101.23 108.794 103.554C120.771 105.878 134.1 101.883 135.645 98.0096C137.19 94.1357 135.645 86.0005 135.645 86.0005Z" fill="#2F2E41"/>
<path d="M112.851 92.9735L99.5223 124.473L93.3408 160.888L101.454 162.825L115.966 129.315L135.645 97.2348L112.851 92.9735Z" fill="#2F2E41"/>
<path d="M96.0452 168.248L88.6819 167.473L87.5457 171.735C87.5457 171.735 75.5692 182.582 81.7506 183.356C87.9321 184.131 93.7272 179.87 93.7272 179.87L102.23 174.979C102.23 174.979 101.647 165.803 99.3291 165.803C97.0111 165.803 96.0452 168.248 96.0452 168.248Z" fill="#2F2E41"/>
<path d="M107.679 153.07C107.679 153.07 105.633 164.324 105.881 163.836C106.129 163.348 113.092 163.528 113.092 163.528L113.668 152.752L107.679 153.07Z" fill="#A0616A"/>
<path d="M104.095 85.486L101.108 119.572L106.432 156.123L114.745 155.456L118.24 119.092L127.089 82.4883L104.095 85.486Z" fill="#2F2E41"/>
<path d="M111.269 162.288L104.027 163.829L104.257 168.233C104.257 168.233 96.2018 182.256 102.32 181.081C108.438 179.906 112.64 174.06 112.64 174.06L119.223 166.777C119.223 166.777 115.845 158.229 113.64 158.946C111.436 159.663 111.269 162.288 111.269 162.288Z" fill="#2F2E41"/>
<path d="M111.062 14.9313C111.062 14.9313 107.378 17.0979 108.586 19.2405C109.794 21.3832 111.479 24.3017 110.336 25.2209C109.193 26.14 107.307 30.1926 107.307 30.1926C107.307 30.1926 99.2531 29.0648 100.009 35.3376C100.765 41.6104 104.549 42.4656 101.306 45.2251C98.063 47.9847 104.676 51.2851 104.676 51.2851C104.676 51.2851 109.241 49.8586 110.283 45.4718C111.325 41.0849 109.354 48.826 110.015 49.3811C110.676 49.9361 113.241 53.5947 115.057 48.7304C116.872 43.8661 115.074 41.9801 117.473 39.1093C119.872 36.2384 121.503 31.5949 121.431 30.7832C121.36 29.9715 124.175 22.5646 119.842 19.676C115.508 16.7874 111.062 14.9313 111.062 14.9313Z" fill="#2F2E41"/>
<path d="M112.754 32.1563L110.147 41.4506H124.459L119.746 29.9987L112.754 32.1563Z" fill="#A0616A"/>
<path opacity="0.1" d="M112.754 32.1563L110.147 41.4506H124.459L119.746 29.9987L112.754 32.1563Z" fill="black"/>
<path d="M143.968 100.779C144.153 103.557 142.873 105.905 141.11 106.022C139.346 106.14 137.768 103.983 137.583 101.204C137.494 100.095 137.672 98.9807 138.1 97.9544L137.466 86.1735L142.986 85.9927L143.025 97.6258C143.586 98.5863 143.909 99.6676 143.968 100.779Z" fill="#A0616A"/>
<path d="M127.347 54.8277C127.347 54.8277 127.652 46.1633 130.941 45.6314C134.229 45.0995 138.675 49.0093 138.675 49.0093L145.467 77.2211L144.431 94.948L136.997 94.5269L135.252 77.7321L127.347 54.8277Z" fill="#FF6F61"/>
<path d="M108.988 38.3516H122.491L137.19 48.4237L141.44 83.6761L139.122 90.6491L134.872 98.7843C134.872 98.7843 139.122 80.9644 128.691 87.9374C128.587 88.0071 128.483 88.0763 128.381 88.1449C121.666 92.6419 112.806 92.1802 106.59 87.0118L101.647 82.9013L104.352 69.3427L102.227 44.3561L108.988 38.3516Z" fill="#FF6F61"/>
<path d="M75.198 82.4866C73.0321 84.229 70.38 84.5209 69.2743 83.1386C68.1687 81.7563 69.0283 79.2238 71.1951 77.4811C72.0511 76.773 73.0638 76.2808 74.1484 76.0456L83.4181 68.7792L86.7261 73.2136L77.2366 79.9063C76.7723 80.9173 76.0733 81.8021 75.198 82.4866Z" fill="#A0616A"/>
<path d="M103.256 42.5145C103.256 42.5145 110.515 37.8049 112.832 40.2038C115.15 42.6027 114.499 48.4963 114.499 48.4963L95.319 70.2319L80.2309 79.5288L76.3192 73.1762L89.053 62.1266L103.256 42.5145Z" fill="#FF6F61"/>
<path d="M116.155 34.1761C120.915 34.1761 124.774 30.3065 124.774 25.5332C124.774 20.7598 120.915 16.8903 116.155 16.8903C111.394 16.8903 107.535 20.7598 107.535 25.5332C107.535 30.3065 111.394 34.1761 116.155 34.1761Z" fill="#A0616A"/>
<path d="M111.864 19.74C111.864 19.74 110.594 15.4956 112.711 15.4956C114.827 15.4956 123.293 15.92 124.139 16.7689C124.986 17.6178 135.003 26.1372 129.077 32.9281C123.151 39.7191 129.077 43.0003 129.077 43.0003C129.077 43.0003 133.451 53.2702 129.219 54.1191C124.986 54.968 107.623 50.1141 111.864 42.2349C116.466 33.6844 118.607 20.1886 111.864 19.74Z" fill="#2F2E41"/>
<path d="M252.909 82.8377C252.772 82.4178 251.735 82.6027 251.635 82.2271C251.536 81.8529 252.531 81.5391 253.295 80.4846C253.432 80.2945 254.3 79.0961 253.967 78.592C253.336 77.6366 248.949 80.0162 247.896 78.6808C247.665 78.3878 247.57 77.8847 246.881 76.9484C246.607 76.576 246.432 76.3962 246.222 76.4015C245.924 76.409 245.817 76.7827 245.349 77.4597C244.647 78.4749 244.393 78.3475 243.931 79.1793C243.587 79.7968 243.547 80.1914 243.299 80.2146C242.949 80.2475 242.804 79.4787 242.376 79.4489C241.939 79.4185 241.501 80.1781 241.285 80.7717C240.878 81.8854 241.13 82.7367 241.186 83.5852C241.246 84.5072 241.104 85.8568 240.105 87.5891L230.681 102.644C232.705 99.5748 238.45 91.2059 240.764 88.1361C241.433 87.2499 242.151 86.3601 243.256 86.1927C244.32 86.0315 245.614 86.5593 247.421 86.5286C247.632 86.525 248.22 86.5075 248.363 86.1954C248.481 85.9373 248.187 85.713 248.294 85.4704C248.437 85.145 249.081 85.2846 249.958 85.0685C250.577 84.9162 250.997 84.6644 251.359 84.4479C251.468 84.3826 253.091 83.3966 252.909 82.8377Z" fill="#F2F2F2"/>
<path d="M228.227 86.3526C227.982 86.2988 227.773 86.8625 227.561 86.8032C227.349 86.7441 227.483 86.1638 227.187 85.4839C227.133 85.3612 226.797 84.5886 226.454 84.6069C225.805 84.6416 225.704 87.4873 224.746 87.6203C224.536 87.6495 224.262 87.5511 223.605 87.6198C223.344 87.6471 223.205 87.6817 223.147 87.7866C223.065 87.9354 223.217 88.0957 223.413 88.5214C223.708 89.1599 223.572 89.2479 223.846 89.7156C224.049 90.0627 224.231 90.1966 224.17 90.3252C224.085 90.5071 223.667 90.3566 223.529 90.5587C223.388 90.765 223.634 91.1993 223.862 91.4773C224.29 91.9988 224.779 92.1205 225.21 92.3378C225.679 92.5739 226.299 93.0335 226.858 94.025L231.508 103.006C230.59 101.125 228.151 95.883 227.317 93.8582C227.076 93.2737 226.847 92.6636 227.084 92.0714C227.312 91.5012 227.944 91.0164 228.45 90.1182C228.51 90.0133 228.67 89.7192 228.559 89.5588C228.467 89.4263 228.272 89.5058 228.184 89.3833C228.066 89.219 228.32 88.9425 228.468 88.4483C228.572 88.0999 228.57 87.8204 228.568 87.5801C228.568 87.5076 228.553 86.4242 228.227 86.3526Z" fill="#F2F2F2"/>
<path d="M232.866 88.544L233.012 87.1909L233.102 87.1059C233.517 86.7128 233.776 86.2964 233.874 85.8679C233.889 85.7997 233.901 85.7308 233.913 85.6606C233.962 85.3824 234.022 85.0366 234.289 84.6773C234.438 84.4772 234.833 84.0249 235.24 84.1829C235.35 84.2242 235.424 84.2956 235.476 84.3714C235.489 84.3582 235.502 84.3451 235.516 84.3309C235.692 84.1595 235.815 84.0967 235.934 84.0362C236.025 83.9897 236.119 83.9418 236.278 83.8141C236.348 83.7581 236.404 83.7077 236.451 83.6654C236.594 83.5375 236.777 83.3876 237.027 83.447C237.293 83.5197 237.384 83.7736 237.444 83.9417C237.552 84.2415 237.585 84.4476 237.607 84.5844C237.615 84.6343 237.624 84.6906 237.631 84.7089C237.689 84.8557 238.419 84.8937 238.693 84.9095C239.31 84.9431 239.844 84.9721 239.972 85.3956C240.064 85.6986 239.872 86.029 239.385 86.4039C239.233 86.5205 239.081 86.601 238.949 86.6611C239.031 86.7382 239.095 86.843 239.099 86.9858C239.108 87.3237 238.763 87.5829 238.072 87.7577C237.901 87.8017 237.67 87.8598 237.368 87.8451C237.225 87.838 237.101 87.8162 236.995 87.7958C236.979 87.8565 236.95 87.9196 236.897 87.9795C236.744 88.1559 236.495 88.2007 236.159 88.1013C235.787 87.9974 235.493 87.856 235.233 87.7318C235.007 87.6236 234.812 87.5311 234.648 87.5058C234.343 87.463 234.059 87.6517 233.719 87.9029L232.866 88.544Z" fill="#F2F2F2"/>
<path d="M235.299 80.8371L233.956 81.0385L233.852 80.9731C233.367 80.6705 232.9 80.5245 232.462 80.5388C232.392 80.5411 232.322 80.5469 232.252 80.5528C231.971 80.5763 231.622 80.6056 231.208 80.438C230.977 80.3439 230.44 80.0756 230.489 79.6405C230.501 79.5234 230.552 79.4333 230.612 79.3641C230.596 79.3549 230.58 79.3454 230.562 79.3352C230.352 79.2081 230.26 79.1046 230.172 79.005C230.104 78.9284 230.034 78.8493 229.87 78.7273C229.799 78.6738 229.736 78.6323 229.683 78.5974C229.523 78.4912 229.333 78.3519 229.326 78.094C229.329 77.8181 229.551 77.6654 229.698 77.5642C229.96 77.3836 230.15 77.2991 230.276 77.2431C230.323 77.2227 230.375 77.1996 230.39 77.1882C230.517 77.0946 230.369 76.3776 230.315 76.1074C230.191 75.5007 230.083 74.9756 230.459 74.7437C230.728 74.5775 231.096 74.6799 231.581 75.0573C231.732 75.1748 231.848 75.3016 231.939 75.4145C231.993 75.3161 232.078 75.2267 232.215 75.1867C232.538 75.0923 232.876 75.3618 233.22 75.9872C233.306 76.1425 233.42 76.3516 233.483 76.6483C233.512 76.788 233.523 76.9144 233.53 77.0227C233.592 77.0226 233.661 77.0348 233.732 77.0704C233.941 77.1747 234.047 77.4041 234.037 77.7561C234.031 78.1432 233.969 78.4641 233.915 78.7471C233.868 78.9943 233.828 79.2072 233.845 79.3725C233.881 79.679 234.136 79.9068 234.464 80.173L235.299 80.8371Z" fill="#F2F2F2"/>
<path d="M235.48 76.7949L235.626 75.4417L235.715 75.3567C236.13 74.9637 236.39 74.5473 236.487 74.1187C236.502 74.0506 236.514 73.9817 236.527 73.9115C236.575 73.6333 236.635 73.2874 236.902 72.9282C237.052 72.7281 237.446 72.2757 237.854 72.4337C237.964 72.475 238.038 72.5465 238.089 72.6223C238.102 72.6091 238.116 72.596 238.13 72.5818C238.306 72.4103 238.429 72.3475 238.547 72.2871C238.638 72.2405 238.733 72.1926 238.892 72.065C238.962 72.009 239.017 71.9586 239.065 71.9163C239.208 71.7883 239.39 71.6385 239.641 71.6978C239.906 71.7706 239.997 72.0245 240.058 72.1925C240.165 72.4923 240.199 72.6985 240.221 72.8352C240.228 72.8852 240.238 72.9414 240.245 72.9597C240.303 73.1065 241.032 73.1445 241.306 73.1604C241.923 73.1939 242.457 73.223 242.585 73.6465C242.677 73.9494 242.485 74.2799 241.998 74.6548C241.847 74.7714 241.695 74.8519 241.563 74.912C241.644 74.989 241.709 75.0939 241.713 75.2366C241.722 75.5745 241.376 75.8338 240.686 76.0086C240.514 76.0525 240.283 76.1106 239.981 76.0959C239.839 76.0889 239.714 76.067 239.608 76.0466C239.592 76.1073 239.563 76.1704 239.511 76.2303C239.357 76.4067 239.109 76.4516 238.772 76.3521C238.4 76.2482 238.106 76.1069 237.847 75.9826C237.62 75.8744 237.425 75.7819 237.261 75.7566C236.956 75.7139 236.672 75.9026 236.332 76.1537L235.48 76.7949Z" fill="#F2F2F2"/>
<path d="M231.127 102.721L230.89 102.486L230.56 102.451C230.561 102.42 230.559 102.347 230.557 102.233C230.544 101.611 230.505 99.7165 230.768 96.8057C230.951 94.7738 231.258 92.7112 231.68 90.6743C232.102 88.6342 232.541 87.1163 232.893 85.8963C233.159 84.9761 233.427 84.1033 233.689 83.2531C234.388 80.9817 235.047 78.8362 235.456 76.3888C235.547 75.8425 235.737 74.7053 235.348 73.363C235.123 72.5845 234.737 71.8518 234.2 71.1858L234.719 70.7653C235.311 71.5012 235.739 72.3127 235.989 73.1771C236.42 74.6653 236.213 75.9045 236.114 76.4998C235.698 78.9904 235.032 81.1566 234.326 83.4499C234.066 84.2969 233.798 85.1659 233.534 86.0824C233.185 87.2911 232.75 88.7958 232.333 90.8097C231.916 92.8223 231.613 94.8596 231.432 96.8659C231.172 99.74 231.211 101.606 231.224 102.219C231.23 102.547 231.232 102.615 231.127 102.721Z" fill="#F2F2F2"/>
<path d="M232.776 71.9558C232.749 71.9498 232.722 71.9432 232.695 71.9351C232.147 71.7812 231.708 71.3337 231.389 70.6052C231.24 70.2626 231.204 69.9021 231.134 69.1831C231.123 69.0723 231.074 68.5113 231.134 67.7679C231.173 67.2822 231.225 67.087 231.357 66.9338C231.503 66.7632 231.701 66.6654 231.909 66.6164C231.915 66.552 231.936 66.4892 231.977 66.4295C232.149 66.1822 232.436 66.2838 232.592 66.3367C232.67 66.365 232.768 66.4009 232.878 66.4195C233.051 66.4494 233.154 66.419 233.31 66.3736C233.46 66.3301 233.646 66.276 233.902 66.2806C234.409 66.2876 234.785 66.516 234.908 66.5912C235.56 66.9839 235.785 67.6103 236.046 68.3357C236.097 68.4811 236.269 69.0066 236.309 69.6834C236.338 70.1716 236.274 70.3715 236.201 70.5144C236.051 70.8082 235.823 70.9443 235.255 71.2309C234.661 71.5311 234.364 71.6813 234.12 71.7586C233.552 71.9374 233.195 72.0497 232.776 71.9558Z" fill="#F2F2F2"/>
<path d="M64.5805 79.2957L64.1446 65.5074C64.1375 65.2836 64.2252 65.0657 64.3853 64.9096C64.5455 64.7534 64.7653 64.6715 64.9884 64.6849L75.9002 65.3411C76.1207 65.3543 76.3275 65.46 76.4677 65.631C76.608 65.802 76.6715 66.0258 76.6419 66.2452L74.796 79.9496C74.7401 80.3642 74.3703 80.6673 73.954 80.6396L65.324 80.0673C65.2365 80.0615 65.1531 80.042 65.0759 80.0107C64.7909 79.8951 64.5907 79.6204 64.5805 79.2957Z" fill="#FF6F61"/>
<path d="M64.1581 64.2175C64.3108 64.2014 64.5153 64.1816 64.7608 64.1609C64.6952 64.0384 64.6683 63.8935 64.6964 63.7447L64.8912 62.7119C64.9418 62.4439 65.1572 62.2384 65.4269 62.2022C67.0335 61.9868 72.5597 61.4023 76.0395 62.9853C76.2572 63.0843 76.3973 63.3018 76.4042 63.5414L76.436 64.6433C76.4399 64.7795 76.4005 64.9058 76.3313 65.0105C76.6206 65.0885 76.9089 65.1709 77.1949 65.2609C77.3742 65.3172 77.5025 65.4759 77.524 65.663L77.5781 66.1323C77.6124 66.4301 77.3689 66.6862 77.0706 66.6659L64.0253 65.7826C63.7284 65.7625 63.5217 65.4784 63.5931 65.1888L63.7434 64.5795C63.7918 64.3832 63.9576 64.2387 64.1581 64.2175Z" fill="#3F3D56"/>
<path d="M31.7415 40.1693L31.3056 26.3811C31.2986 26.1572 31.3863 25.9394 31.5464 25.7832C31.7066 25.627 31.9264 25.5451 32.1494 25.5586L43.0613 26.2148C43.2817 26.2279 43.4886 26.3336 43.6288 26.5047C43.769 26.6756 43.8325 26.8995 43.803 27.1188L41.957 40.8232C41.9012 41.2379 41.5314 41.541 41.1151 41.5132L32.4851 40.941C32.3975 40.9352 32.3142 40.9156 32.2369 40.8843C31.9519 40.7687 31.7518 40.494 31.7415 40.1693Z" fill="#FF6F61"/>
<path d="M31.3192 25.0912C31.4719 25.0751 31.6764 25.0552 31.9219 25.0346C31.8562 24.912 31.8294 24.7671 31.8574 24.6184L32.0523 23.5856C32.1029 23.3175 32.3183 23.112 32.5879 23.0759C34.1946 22.8604 39.7208 22.276 43.2006 23.859C43.4183 23.958 43.5583 24.1755 43.5653 24.4151L43.5971 25.5169C43.601 25.6532 43.5615 25.7794 43.4923 25.8841C43.7816 25.9621 44.07 26.0446 44.356 26.1345C44.5352 26.1909 44.6635 26.3495 44.6851 26.5366L44.7391 27.006C44.7734 27.3038 44.53 27.5598 44.2317 27.5396L31.1864 26.6562C30.8895 26.6361 30.6827 26.352 30.7542 26.0624L30.9045 25.4531C30.9529 25.2568 31.1187 25.1124 31.3192 25.0912Z" fill="#3F3D56"/>
<path d="M202.89 82.7823L202.454 68.994C202.447 68.7702 202.535 68.5523 202.695 68.3962C202.855 68.24 203.075 68.1581 203.298 68.1715L214.21 68.8277C214.43 68.8408 214.637 68.9465 214.778 69.1176C214.918 69.2885 214.981 69.5124 214.952 69.7317L213.106 83.4361C213.05 83.8508 212.68 84.1539 212.264 84.1262L203.634 83.5539C203.546 83.5481 203.463 83.5285 203.386 83.4972C203.101 83.3816 202.901 83.1069 202.89 82.7823Z" fill="#FF6F61"/>
<path d="M202.468 67.7041C202.621 67.688 202.825 67.6682 203.071 67.6475C203.005 67.5249 202.978 67.38 203.006 67.2313L203.201 66.1985C203.252 65.9304 203.467 65.7249 203.737 65.6888C205.343 65.4734 210.869 64.8889 214.349 66.4719C214.567 66.5709 214.707 66.7884 214.714 67.028L214.746 68.1298C214.75 68.2661 214.71 68.3924 214.641 68.497C214.93 68.575 215.219 68.6575 215.505 68.7474C215.684 68.8038 215.812 68.9624 215.834 69.1495L215.888 69.6189C215.922 69.9167 215.679 70.1727 215.38 70.1525L202.335 69.2691C202.038 69.249 201.831 68.965 201.903 68.6753L202.053 68.066C202.102 67.8697 202.267 67.7253 202.468 67.7041Z" fill="#3F3D56"/>
</g>
<defs>
<clipPath id="clip0_692_929">
<rect width="255" height="185" fill="white"/>
</clipPath>
</defs>
</svg>
