<svg width="128" height="128" viewBox="0 0 128 128" fill="none" xmlns="http://www.w3.org/2000/svg">
<rect width="128" height="128" rx="64" fill="white"/>
<rect x="0.5" y="0.5" width="127" height="127" rx="63.5" stroke="#FF6F61" stroke-opacity="0.314"/>
<path d="M58.25 78.6827L56.4808 76.9135L62.2308 71.1635L56.4808 65.4135L58.25 63.6442L64 69.3942L69.75 63.6442L71.5193 65.4135L65.7693 71.1635L71.5193 76.9135L69.75 78.6827L64 72.9327L58.25 78.6827V78.6827M48.0385 86.7885C46.8878 86.7885 45.9271 86.4031 45.1563 85.6322C44.3854 84.8614 44 83.9006 44 82.75V50.8269C44 49.6763 44.3854 48.7155 45.1563 47.9447C45.9271 47.1739 46.8878 46.7884 48.0385 46.7884H52.4615V41.2115H55.1539V46.7884H73.0385V41.2115H75.5385V46.7884H79.9616C81.1122 46.7884 82.0729 47.1739 82.8438 47.9447C83.6146 48.7155 84 49.6763 84 50.8269V82.75C84 83.9006 83.6146 84.8614 82.8438 85.6322C82.0729 86.4031 81.1122 86.7885 79.9616 86.7885H48.0385V86.7885M48.0385 84.2885H79.9616C80.3462 84.2885 80.6987 84.1282 81.0192 83.8077C81.3398 83.4872 81.5 83.1346 81.5 82.75V60.8269H46.5V82.75C46.5 83.1346 46.6603 83.4872 46.9808 83.8077C47.3013 84.1282 47.6539 84.2885 48.0385 84.2885V84.2885M46.5 58.3269H81.5V50.8269C81.5 50.4423 81.3398 50.0897 81.0192 49.7692C80.6987 49.4487 80.3462 49.2885 79.9616 49.2885H48.0385C47.6539 49.2885 47.3013 49.4487 46.9808 49.7692C46.6603 50.0897 46.5 50.4423 46.5 50.8269V58.3269V58.3269M46.5 58.3269V50.8269C46.5 50.4423 46.5 50.0897 46.5 49.7692C46.5 49.4487 46.5 49.2885 46.5 49.2885V49.2885C46.5 49.2885 46.5 49.4487 46.5 49.7692C46.5 50.0897 46.5 50.4423 46.5 50.8269V58.3269V58.3269V58.3269" fill="#FF6F61" fill-opacity="0.314"/>
</svg>
