<svg width="350" height="248" viewBox="0 0 350 248" fill="none" xmlns="http://www.w3.org/2000/svg">
<g clip-path="url(#clip0_679_2146)">
<path d="M39.0518 197.736C31.5332 197.736 24.2618 195.05 18.5476 190.162C16.6414 188.529 14.6104 185.692 12.511 181.728C11.1714 179.175 10.421 176.354 10.3152 173.472C10.2093 170.591 10.7507 167.722 11.8996 165.077C10.7922 166.204 9.56737 167.209 8.24605 168.075L7.5781 168.52L7.53951 167.719C7.51418 167.198 7.50137 166.678 7.50137 166.175C7.50137 163.21 9.74329 160.201 8.70933 157.46C4.35146 145.908 -9.47062 134.428 10.5618 116.55C12.4149 114.897 9.93943 111.59 9.93943 109.088C9.93943 84.5657 36.5746 47.7805 54.405 64.6156C64.8128 74.4424 86.4969 81.4232 96.6211 95.0918L96.7552 95.4967L96.3601 95.6566C94.3373 96.5071 92.2067 97.0739 90.0288 97.3412C92.3506 97.8148 94.7202 98.0134 97.0885 97.9328L97.4557 97.92L97.5452 98.277C98.4261 101.813 98.8713 105.444 98.8708 109.088L98.8691 109.482C98.8609 112.25 99.436 114.988 100.557 117.519C101.678 120.05 103.319 122.316 105.374 124.169C108.62 127.13 111.214 130.734 112.99 134.753C114.766 138.772 115.686 143.117 115.691 147.511C115.691 152.71 112.159 159.534 109.195 164.343C108.444 165.568 107.426 166.607 106.216 167.382C105.007 168.157 103.637 168.648 102.211 168.819C100.86 168.989 99.4876 168.86 98.1917 168.442C96.8958 168.023 95.7078 167.324 94.7118 166.395C96.1142 169.216 97.9419 171.805 100.131 174.07L100.535 174.487L100.033 174.779C95.2091 177.593 89.7246 179.075 84.1405 179.073L83.8135 179.072C75.3357 179.072 67.2886 182.357 61.7356 188.086C58.7873 191.124 55.2621 193.543 51.3668 195.2C47.4715 196.857 43.2847 197.719 39.0518 197.736Z" fill="#E6E6E6"/>
<path d="M27.9261 247.175C27.7896 247.175 27.6577 247.126 27.5547 247.036C27.4516 246.946 27.3843 246.823 27.3651 246.688C27.341 246.518 24.9798 229.483 27.1004 206.843C29.0588 185.934 35.3479 155.819 54.1878 131.085C54.2329 131.026 54.2893 130.976 54.3537 130.938C54.4182 130.901 54.4894 130.876 54.5633 130.866C54.6372 130.856 54.7123 130.861 54.7844 130.88C54.8565 130.899 54.9242 130.932 54.9835 130.977C55.0428 131.022 55.0926 131.079 55.1301 131.143C55.1676 131.208 55.192 131.279 55.202 131.353C55.2119 131.427 55.2071 131.502 55.188 131.574C55.1689 131.646 55.1357 131.714 55.0904 131.773C36.4133 156.293 30.1748 186.188 28.2303 206.949C26.122 229.457 28.4646 246.359 28.4886 246.528C28.5 246.608 28.4939 246.69 28.4709 246.768C28.4478 246.846 28.4083 246.918 28.355 246.98C28.3016 247.041 28.2358 247.09 28.1618 247.124C28.0878 247.158 28.0074 247.175 27.9261 247.175Z" fill="#3F3D56"/>
<path d="M45.1285 165.347C45.0086 165.347 44.8918 165.309 44.7948 165.239C44.6978 165.169 44.6256 165.069 44.5885 164.955C44.5514 164.841 44.5513 164.718 44.5883 164.604C44.6253 164.49 44.6975 164.391 44.7944 164.32C50.1627 160.685 55.9619 157.732 62.0587 155.529C71.5836 152.041 86.0678 148.878 100.979 153.626C101.05 153.648 101.116 153.685 101.173 153.733C101.23 153.781 101.277 153.839 101.311 153.906C101.345 153.972 101.366 154.044 101.372 154.118C101.379 154.193 101.37 154.267 101.348 154.338C101.325 154.409 101.289 154.475 101.241 154.532C101.193 154.589 101.134 154.636 101.068 154.67C101.001 154.705 100.929 154.726 100.855 154.732C100.781 154.738 100.706 154.73 100.635 154.707C86.0292 150.057 71.8076 153.168 62.4488 156.595C56.4501 158.761 50.7439 161.664 45.4616 165.239C45.3648 165.309 45.2482 165.347 45.1285 165.347Z" fill="#3F3D56"/>
<path d="M273.361 197.736C265.843 197.736 258.571 195.05 252.857 190.162C250.951 188.53 248.92 185.692 246.82 181.728C245.481 179.175 244.73 176.354 244.625 173.472C244.519 170.591 245.06 167.722 246.209 165.078C245.102 166.205 243.877 167.21 242.555 168.075L241.888 168.52L241.849 167.719C241.824 167.198 241.811 166.678 241.811 166.175C241.811 163.21 244.053 160.201 243.019 157.46C238.661 145.909 224.839 134.428 244.871 116.551C246.724 114.897 244.249 111.59 244.249 109.088C244.249 84.5659 278.895 42.1419 288.714 64.6158C300.824 92.3318 321.688 89.3672 330.931 95.0919L331.065 95.4969L330.67 95.6568C328.647 96.5072 326.516 97.0741 324.338 97.3413C326.66 97.815 329.03 98.0136 331.398 97.933L331.765 97.9201L331.855 98.2772C332.736 101.813 333.181 105.444 333.18 109.088L333.179 109.482C333.17 112.25 333.745 114.988 334.866 117.519C335.987 120.05 337.628 122.316 339.683 124.169C342.929 127.13 345.523 130.735 347.299 134.753C349.076 138.772 349.995 143.117 350 147.511C350 152.71 346.468 159.534 343.505 164.343C342.754 165.568 341.735 166.607 340.526 167.382C339.316 168.158 337.947 168.649 336.52 168.819C335.169 168.989 333.797 168.86 332.501 168.442C331.205 168.023 330.017 167.324 329.021 166.395C330.424 169.216 332.251 171.805 334.44 174.07L334.844 174.487L334.342 174.779C329.519 177.593 324.034 179.075 318.45 179.073L318.123 179.072C309.645 179.072 301.598 182.357 296.045 188.086C293.097 191.124 289.572 193.543 285.676 195.2C281.781 196.857 277.594 197.719 273.361 197.736Z" fill="#E6E6E6"/>
<path d="M262.236 247.175C262.099 247.175 261.967 247.126 261.864 247.036C261.761 246.946 261.694 246.823 261.675 246.688C261.65 246.518 259.289 229.483 261.41 206.843C263.368 185.934 269.657 155.819 288.497 131.085C288.542 131.026 288.599 130.976 288.663 130.938C288.728 130.901 288.799 130.876 288.873 130.866C288.947 130.856 289.022 130.861 289.094 130.88C289.166 130.899 289.234 130.932 289.293 130.977C289.352 131.022 289.402 131.079 289.44 131.143C289.477 131.208 289.501 131.279 289.511 131.353C289.521 131.427 289.517 131.502 289.497 131.574C289.478 131.646 289.445 131.714 289.4 131.773C270.723 156.293 264.484 186.188 262.54 206.949C260.431 229.457 262.774 246.359 262.798 246.528C262.809 246.608 262.803 246.69 262.78 246.768C262.757 246.846 262.718 246.918 262.664 246.98C262.611 247.041 262.545 247.09 262.471 247.124C262.397 247.158 262.317 247.175 262.236 247.175Z" fill="#3F3D56"/>
<path d="M277.881 166.515C277.761 166.515 277.644 166.477 277.547 166.407C277.45 166.337 277.378 166.237 277.341 166.123C277.304 166.009 277.304 165.886 277.341 165.772C277.378 165.658 277.45 165.559 277.547 165.488C282.915 161.853 288.714 158.9 294.811 156.697C304.336 153.209 318.82 150.046 333.732 154.794C333.803 154.816 333.868 154.852 333.925 154.901C333.982 154.949 334.029 155.007 334.063 155.074C334.098 155.14 334.118 155.212 334.125 155.286C334.131 155.361 334.123 155.435 334.1 155.506C334.078 155.577 334.041 155.643 333.993 155.7C333.945 155.757 333.886 155.804 333.82 155.838C333.754 155.873 333.682 155.894 333.607 155.9C333.533 155.906 333.458 155.898 333.387 155.875C318.782 151.225 304.56 154.335 295.201 157.763C289.203 159.929 283.496 162.832 278.214 166.407C278.117 166.477 278.001 166.515 277.881 166.515Z" fill="#3F3D56"/>
<path d="M251.912 101.814C251.903 101.695 251.933 101.576 251.996 101.474C252.059 101.372 252.153 101.293 252.264 101.247C252.375 101.202 252.498 101.193 252.614 101.222C252.73 101.251 252.835 101.316 252.912 101.407C256.923 106.502 260.285 112.075 262.921 117.999C267.085 127.252 271.281 141.475 267.621 156.695C267.604 156.767 267.573 156.836 267.529 156.896C267.485 156.956 267.43 157.008 267.366 157.047C267.303 157.086 267.232 157.112 267.158 157.123C267.085 157.135 267.01 157.132 266.937 157.114C266.865 157.097 266.796 157.065 266.736 157.022C266.676 156.978 266.625 156.922 266.586 156.859C266.547 156.795 266.521 156.725 266.509 156.651C266.498 156.577 266.501 156.502 266.518 156.429C270.103 141.522 265.977 127.556 261.886 118.466C259.295 112.636 255.989 107.152 252.044 102.139C251.967 102.048 251.921 101.934 251.912 101.814Z" fill="#3F3D56"/>
<path d="M18.7704 98.3103C18.7617 98.1908 18.791 98.0715 18.8543 97.9696C18.9175 97.8678 19.0113 97.7885 19.1223 97.7433C19.2333 97.6981 19.3558 97.6892 19.4722 97.7179C19.5885 97.7466 19.6928 97.8114 19.7701 97.9031C23.7809 102.997 27.143 108.571 29.779 114.495C33.943 123.748 38.1392 137.971 34.4797 153.191C34.4623 153.263 34.4308 153.332 34.387 153.392C34.3432 153.452 34.2879 153.503 34.2244 153.542C34.1608 153.581 34.0902 153.607 34.0166 153.619C33.943 153.631 33.8678 153.628 33.7953 153.61C33.7228 153.593 33.6545 153.561 33.5942 153.517C33.5339 153.474 33.4829 153.418 33.444 153.355C33.4051 153.291 33.3791 153.22 33.3675 153.147C33.3559 153.073 33.359 152.998 33.3765 152.925C36.9608 138.018 32.8356 124.052 28.7441 114.961C26.1529 109.132 22.847 103.648 18.9025 98.6349C18.8252 98.5434 18.779 98.4298 18.7704 98.3103Z" fill="#3F3D56"/>
<path d="M175.382 40.9315C174.705 40.2371 173.872 39.7143 172.952 39.4064C172.033 39.0984 171.053 39.0143 170.095 39.1609C169.136 39.3076 168.227 39.6807 167.441 40.2495C166.656 40.8182 166.017 41.5662 165.579 42.4312C156.347 48.8585 150.494 57.4705 148.286 68.4392L131.908 53.5745C132.1 52.3311 131.894 51.0587 131.318 49.9399C130.743 48.8211 129.828 47.9134 128.705 47.3469C127.581 46.7805 126.308 46.5843 125.066 46.7867C123.825 46.9891 122.68 47.5795 121.794 48.4734C120.909 49.3672 120.33 50.5185 120.139 51.7622C119.948 53.0059 120.156 54.278 120.733 55.3962C121.31 56.5143 122.226 57.421 123.35 57.9862C124.473 58.5514 125.747 58.7461 126.988 58.5423C129.995 63.6476 143.941 86.2239 152.548 81.0551C159.783 76.7105 172.631 55.1845 176.405 48.0453C177.01 46.9038 177.236 45.6 177.052 44.3216C176.868 43.0432 176.283 41.8562 175.382 40.9315Z" fill="#FFB6B6"/>
<path d="M175.905 50.7896C176.728 48.5597 177.387 46.1017 176.674 43.8345C175.889 41.3411 173.48 39.5557 170.903 39.1215C168.326 38.6872 165.648 39.4644 163.433 40.8504C161.217 42.2364 159.416 44.194 157.815 46.2601L158.244 45.5774C156.16 48.3085 154.076 51.0396 151.992 53.7707C157.281 57.4467 162.57 61.1226 167.86 64.7986C171.307 60.6126 174.027 55.8771 175.905 50.7896Z" fill="#FF6F61"/>
<path d="M153.094 238.912L145.518 238.912L141.914 209.679L153.096 209.68L153.094 238.912Z" fill="#FFB6B6"/>
<path d="M153.361 246.818L130.064 246.817V246.523C130.064 244.117 131.019 241.81 132.72 240.109C134.42 238.408 136.727 237.452 139.132 237.452H139.132L143.388 234.222L151.328 237.452L153.361 237.452L153.361 246.818Z" fill="#2F2E41"/>
<path d="M264.226 131.285L267.406 138.164L242.397 153.709L237.703 143.557L264.226 131.285Z" fill="#FFB6B6"/>
<path d="M271.287 127.724L281.067 148.876L280.8 149C278.617 150.009 276.123 150.111 273.866 149.281C271.608 148.451 269.773 146.758 268.763 144.575L268.763 144.575L264.046 142.067L263.643 133.502L262.789 131.656L271.287 127.724Z" fill="#2F2E41"/>
<path d="M96.5396 14.6805C98.0954 14.2134 99.0932 12.957 98.7684 11.8743C98.4435 10.7917 96.9189 10.2927 95.3631 10.7599C93.8073 11.227 92.8095 12.4834 93.1343 13.5661C93.4592 14.6487 94.9838 15.1477 96.5396 14.6805Z" fill="#E6E6E6"/>
<path d="M115.745 13.722C117.301 13.2549 118.299 11.9985 117.974 10.9158C117.649 9.83318 116.124 9.33421 114.569 9.80136C113.013 10.2685 112.015 11.5249 112.34 12.6076C112.665 13.6902 114.189 14.1892 115.745 13.722Z" fill="#3F3D56"/>
<path d="M93.6262 30.7809C95.182 30.3137 96.1799 29.0573 95.855 27.9747C95.5302 26.892 94.0056 26.393 92.4498 26.8602C90.894 27.3274 89.8962 28.5837 90.221 29.6664C90.5459 30.749 92.0705 31.248 93.6262 30.7809Z" fill="#FF6584"/>
<path d="M87.5684 37.5111C88.274 37.4011 88.7179 36.4893 88.5597 35.4746C88.4015 34.4599 87.7013 33.7265 86.9956 33.8366C86.29 33.9467 85.8462 34.8585 86.0044 35.8732C86.1625 36.8879 86.8628 37.6212 87.5684 37.5111Z" fill="#E6E6E6"/>
<path d="M86.5116 49.622C87.2172 49.5119 87.6611 48.6001 87.5029 47.5854C87.3447 46.5707 86.6445 45.8374 85.9388 45.9474C85.2332 46.0575 84.7894 46.9693 84.9476 47.984C85.1057 48.9987 85.806 49.732 86.5116 49.622Z" fill="#3F3D56"/>
<path d="M105.156 25.819C105.861 25.7089 106.305 24.7971 106.147 23.7824C105.989 22.7677 105.288 22.0344 104.583 22.1445C103.877 22.2545 103.433 23.1663 103.592 24.181C103.75 25.1957 104.45 25.9291 105.156 25.819Z" fill="#E6E6E6"/>
<path d="M95.3299 22.6063C96.0356 22.4963 96.4794 21.5845 96.3212 20.5698C96.1631 19.5551 95.4628 18.8217 94.7572 18.9318C94.0515 19.0419 93.6077 19.9537 93.7659 20.9684C93.9241 21.9831 94.6243 22.7164 95.3299 22.6063Z" fill="#FF6584"/>
<path d="M106.814 12.2728C107.52 12.1628 107.963 11.251 107.805 10.2363C107.647 9.22159 106.947 8.48825 106.241 8.59831C105.536 8.70838 105.092 9.62018 105.25 10.6349C105.408 11.6496 106.108 12.3829 106.814 12.2728Z" fill="#3F3D56"/>
<path d="M214.27 205.526C215.877 205.292 217.048 204.196 216.886 203.077C216.723 201.958 215.288 201.241 213.681 201.475C212.073 201.709 210.902 202.806 211.065 203.924C211.227 205.043 212.662 205.76 214.27 205.526Z" fill="#E6E6E6"/>
<path d="M195.131 203.658C196.739 203.424 197.91 202.328 197.747 201.209C197.584 200.09 196.149 199.373 194.542 199.607C192.935 199.841 191.763 200.938 191.926 202.056C192.089 203.175 193.524 203.892 195.131 203.658Z" fill="#3F3D56"/>
<path d="M219.51 190.027C221.118 189.793 222.289 188.696 222.126 187.578C221.964 186.459 220.529 185.742 218.921 185.976C217.314 186.21 216.143 187.306 216.305 188.425C216.468 189.544 217.903 190.261 219.51 190.027Z" fill="#FF6584"/>
<path d="M225.928 183.926C226.643 183.92 227.215 183.084 227.207 182.057C227.2 181.03 226.615 180.202 225.9 180.207C225.186 180.212 224.614 181.049 224.621 182.076C224.629 183.103 225.214 183.931 225.928 183.926Z" fill="#E6E6E6"/>
<path d="M228.749 172.101C229.463 172.095 230.035 171.258 230.028 170.231C230.02 169.205 229.435 168.376 228.721 168.382C228.006 168.387 227.434 169.224 227.442 170.251C227.449 171.278 228.035 172.106 228.749 172.101Z" fill="#3F3D56"/>
<path d="M206.818 192.912C207.532 192.907 208.105 192.07 208.097 191.043C208.089 190.016 207.504 189.188 206.79 189.193C206.076 189.199 205.503 190.036 205.511 191.063C205.519 192.089 206.104 192.918 206.818 192.912Z" fill="#E6E6E6"/>
<path d="M216.066 197.532C216.78 197.526 217.353 196.689 217.345 195.662C217.337 194.635 216.752 193.807 216.038 193.813C215.324 193.818 214.751 194.655 214.759 195.682C214.766 196.709 215.352 197.537 216.066 197.532Z" fill="#FF6584"/>
<path d="M203.192 206.069C203.906 206.064 204.479 205.227 204.471 204.2C204.464 203.173 203.878 202.345 203.164 202.35C202.45 202.356 201.877 203.193 201.885 204.22C201.893 205.246 202.478 206.075 203.192 206.069Z" fill="#3F3D56"/>
<path d="M165.009 106.782L160.405 112.422C160.509 113.95 160.028 114.823 158.598 114.635C158.598 114.635 158.811 117.432 157.059 116.52C155.307 115.608 155.737 118.14 155.737 118.14L154.428 119.744C154.428 119.744 154.387 122.472 153.096 121.376C151.804 120.28 151.39 123.465 151.39 123.465L149.747 125.478L132.996 145.999L142.386 221.422L153.361 220.733L156.037 154.611C156.719 152.788 157.755 151.833 159.338 152.223C160.047 152.379 160.462 151.952 160.723 151.221L161.985 150.309L178.501 138.362L200.316 175.762L254.558 147.146L249.498 137.412L211.445 150.006L210.447 138.097C209.147 137.339 209.366 136.434 210.227 135.467L209.978 132.495C211.268 131.703 210.629 130.448 209.695 129.122C207.746 127.682 207.938 126.042 209.291 124.294C209.291 124.294 211 101.925 202.714 98.8385C194.427 95.7519 165.009 106.782 165.009 106.782Z" fill="#2F2E41"/>
<path d="M181.276 33.3574L170.876 33.8446L165.427 41.6316C161.633 49.9805 160.592 59.3199 162.453 68.3L166.206 86.407L165.211 99.8342C162.547 101.984 162.326 104.511 164.649 107.432C161.789 117.302 186.123 112.86 208.63 109.379C208.708 104.676 207.49 99.888 204.349 94.9728L207.377 55.7429L196.175 42.4103L187.602 36.762L181.276 33.3574Z" fill="#FF6F61"/>
<path d="M191.008 44.1173C190.177 44.616 189.476 45.3059 188.964 46.1297C188.452 46.9536 188.144 47.8876 188.066 48.8544C187.987 49.8212 188.14 50.7928 188.512 51.6885C188.884 52.5843 189.464 53.3785 190.204 54.0051C191.459 62.1487 199.252 69.9937 211.508 76.8407L193.269 89.3499C192.104 88.8759 190.819 88.7832 189.598 89.085C188.377 89.3869 187.283 90.0679 186.472 91.0302C185.662 91.9926 185.177 93.1869 185.088 94.442C184.998 95.697 185.308 96.9482 185.973 98.0161C186.638 99.0841 187.624 99.9139 188.79 100.387C189.955 100.859 191.241 100.951 192.461 100.647C193.682 100.344 194.775 99.6618 195.585 98.6985C196.394 97.7353 196.877 96.5404 196.965 95.2853C202.625 93.5375 227.804 85.1758 224.763 75.6049C222.208 67.5602 204.236 50.0853 198.164 44.7632C197.193 43.9117 195.977 43.3903 194.691 43.2742C193.405 43.1581 192.116 43.4533 191.008 44.1173Z" fill="#FFB6B6"/>
<path d="M171.173 80.5977C169.961 80.5956 168.794 80.1368 167.904 79.3127C167.015 78.4886 166.468 77.3596 166.373 76.1506L165.727 67.9137C165.627 66.6382 166.038 65.3752 166.869 64.4026C167.7 63.43 168.883 62.8273 170.158 62.7273L186.153 61.4725C187.428 61.3726 188.69 61.7833 189.662 62.6145C190.635 63.4457 191.237 64.6292 191.337 65.9046L191.983 74.1415C192.083 75.417 191.672 76.6799 190.841 77.6526C190.01 78.6252 188.827 79.2279 187.552 79.3279L171.558 80.5827C171.429 80.5928 171.301 80.5978 171.173 80.5977Z" fill="#F2F2F2"/>
<path d="M173.475 31.3827C180.995 31.3827 187.092 25.2843 187.092 17.7616C187.092 10.2388 180.995 4.14038 173.475 4.14038C165.955 4.14038 159.859 10.2388 159.859 17.7616C159.859 25.2843 165.955 31.3827 173.475 31.3827Z" fill="#FFB6B6"/>
<path d="M187.623 9.09278C186.977 8.2549 186.239 7.48535 185.677 6.5893C185.136 5.72659 184.767 4.75821 184.157 3.94279C182.353 1.53108 179 1.03791 176.004 0.737552C174.026 0.539242 172.048 0.340927 170.069 0.142599C168.958 -0.0148299 167.831 -0.0351874 166.714 0.0819944C165.652 0.247044 164.642 0.655891 163.764 1.2765C162.886 1.89712 162.164 2.71265 161.654 3.65921C161.074 4.75628 160.687 6.12358 159.557 6.63526C159.024 6.80325 158.482 6.93815 157.933 7.03918C157.399 7.20484 156.862 7.63157 156.882 8.19044C156.919 9.22529 158.744 9.81764 158.299 10.7524C157.906 11.5779 156.331 10.9922 156.107 12.2384C156.077 12.4183 156.085 12.6024 156.13 12.7792C156.175 12.9559 156.256 13.1212 156.369 13.2646C156.877 13.9154 157.71 14.0845 158.492 14.2281L157.104 16.213C161.596 18.0595 166.597 18.2537 171.219 16.7611C171.909 16.5324 172.645 16.4807 173.361 16.6106C174.076 16.7405 174.747 17.048 175.312 17.5048C175.878 17.9616 176.32 18.5531 176.597 19.2251C176.875 19.8971 176.979 20.6281 176.901 21.351L176.895 21.4074C176.865 21.6254 176.894 21.8474 176.98 22.0499C177.066 22.2524 177.206 22.4278 177.383 22.5574C178.088 23.0361 178.803 22.3646 179.122 21.7001C179.447 21.0242 179.662 20.2042 180.448 19.9674C180.769 19.8865 181.107 19.9118 181.412 20.0396C181.717 20.1674 181.972 20.3908 182.139 20.6762C182.75 21.6355 182.499 22.7804 182.148 23.7957C181.334 26.1385 180.013 28.2727 178.28 30.0458C181.238 29.85 180.373 30.1467 183.331 29.951L184.156 30.0794C186.136 28.844 187.117 26.4934 187.639 24.2185C188.823 19.058 190.853 13.2871 187.623 9.09278Z" fill="#2F2E41"/>
<path d="M199.168 43.0021C197.201 41.6677 194.975 40.4373 192.603 40.5851C189.995 40.7477 187.684 42.6586 186.643 45.0564C185.603 47.4542 185.714 50.2413 186.526 52.7256C187.339 55.2099 188.806 57.4298 190.426 59.4806L189.867 58.9003C192.016 61.58 194.166 64.2597 196.315 66.9394C201.153 62.6865 205.991 58.4336 210.829 54.1807C207.595 49.8275 203.653 46.0487 199.168 43.0021Z" fill="#FF6F61"/>
<path d="M173.098 246.102L173.103 245.831C173.226 241.28 174.338 236.811 176.362 232.733C178.386 228.656 181.274 225.068 184.824 222.219C186.828 220.637 189.023 219.314 191.357 218.281L191.58 218.182L191.618 218.422C192.07 221.296 192.786 224.229 193.119 225.53L195.355 216.804L195.603 216.732C196.743 216.397 197.956 216.412 199.087 216.773C200.218 217.134 201.215 217.826 201.949 218.76C202.715 219.693 203.184 220.835 203.296 222.038C203.408 223.24 203.157 224.449 202.576 225.508C202.055 226.479 201.543 227.493 201.047 228.473C199.345 231.84 197.585 235.322 195.019 238.028C193.058 240.057 190.668 241.621 188.024 242.608C185.38 243.594 182.55 243.978 179.739 243.73L173.098 246.102Z" fill="#F2F2F2"/>
<path d="M204.689 246.89L98.9194 247.009C98.8586 247.009 98.7983 246.997 98.7421 246.974C98.6858 246.951 98.6347 246.917 98.5917 246.873C98.5487 246.83 98.5145 246.779 98.4913 246.723C98.468 246.667 98.456 246.607 98.456 246.546C98.456 246.485 98.468 246.424 98.4913 246.368C98.5145 246.312 98.5487 246.261 98.5917 246.218C98.6347 246.175 98.6858 246.141 98.7421 246.117C98.7983 246.094 98.8586 246.082 98.9194 246.082L204.689 245.962C204.812 245.962 204.93 246.011 205.017 246.098C205.104 246.185 205.153 246.303 205.153 246.426C205.153 246.549 205.104 246.667 205.017 246.754C204.93 246.841 204.812 246.89 204.689 246.89Z" fill="#CACACA"/>
<path d="M303.551 246.89L242.541 247.009C242.48 247.009 242.42 246.997 242.364 246.974C242.307 246.951 242.256 246.917 242.213 246.873C242.17 246.83 242.136 246.779 242.113 246.723C242.09 246.667 242.078 246.607 242.078 246.546C242.078 246.485 242.09 246.424 242.113 246.368C242.136 246.312 242.17 246.261 242.213 246.218C242.256 246.175 242.307 246.141 242.364 246.117C242.42 246.094 242.48 246.082 242.541 246.082L303.551 245.962C303.674 245.962 303.792 246.011 303.879 246.098C303.966 246.185 304.014 246.303 304.014 246.426C304.014 246.549 303.966 246.667 303.879 246.754C303.792 246.841 303.674 246.89 303.551 246.89Z" fill="#CACACA"/>
<path d="M61.0679 246.89L3.95014 247.009C3.88928 247.009 3.82902 246.997 3.77279 246.974C3.71657 246.951 3.66548 246.917 3.62244 246.873C3.57941 246.83 3.54527 246.779 3.52198 246.723C3.49869 246.667 3.48671 246.607 3.48671 246.546C3.48671 246.485 3.49869 246.424 3.52198 246.368C3.54527 246.312 3.57941 246.261 3.62244 246.218C3.66548 246.175 3.71657 246.141 3.77279 246.117C3.82902 246.094 3.88928 246.082 3.95014 246.082L61.0679 245.962C61.1289 245.962 61.1893 245.974 61.2457 245.997C61.3021 246.021 61.3533 246.055 61.3965 246.098C61.4397 246.141 61.4739 246.192 61.4973 246.248C61.5207 246.305 61.5327 246.365 61.5327 246.426C61.5327 246.487 61.5207 246.547 61.4973 246.604C61.4739 246.66 61.4397 246.711 61.3965 246.754C61.3533 246.797 61.3021 246.831 61.2457 246.855C61.1893 246.878 61.1289 246.89 61.0679 246.89Z" fill="#CACACA"/>
<path d="M122.934 39.0396C122.709 39.0395 122.487 39.0861 122.282 39.1762C122.076 39.2664 121.891 39.3982 121.739 39.5633C121.587 39.7285 121.471 39.9234 121.398 40.1358C121.325 40.3481 121.297 40.5733 121.315 40.7971C122.974 48.6165 123.703 56.0732 123.142 63.0256C123.177 63.4312 123.363 63.809 123.662 64.0849C123.961 64.3608 124.353 64.5149 124.76 64.517H135.238C135.645 64.5149 136.036 64.3608 136.336 64.0849C136.635 63.809 136.821 63.4312 136.856 63.0256C136.01 56.0129 136.905 48.5254 138.683 40.7971C138.701 40.5733 138.673 40.3481 138.6 40.1358C138.527 39.9234 138.411 39.7285 138.258 39.5633C138.106 39.3982 137.922 39.2664 137.716 39.1762C137.511 39.0861 137.288 39.0395 137.064 39.0396H122.934Z" fill="#FF6F61"/>
<path d="M139.522 42.0024L138.74 38.288C138.669 37.9503 138.484 37.6472 138.216 37.4297C137.948 37.2122 137.613 37.0935 137.268 37.0935H132.388C132.369 37.0287 132.338 36.9681 132.297 36.9148L131.754 36.2368C131.703 36.1729 131.639 36.1213 131.565 36.0858C131.491 36.0504 131.41 36.032 131.329 36.032H128.315C128.234 36.032 128.153 36.0504 128.079 36.0858C128.005 36.1213 127.941 36.1729 127.89 36.2368L127.347 36.9148C127.306 36.9681 127.275 37.0287 127.256 37.0935H122.73C122.385 37.0935 122.05 37.2122 121.782 37.4297C121.514 37.6472 121.329 37.9503 121.258 38.288L120.476 42.0024C120.43 42.2215 120.433 42.4481 120.486 42.6657C120.539 42.8833 120.639 43.0864 120.78 43.2602C120.921 43.4341 121.099 43.5742 121.301 43.6705C121.503 43.7668 121.724 43.8167 121.948 43.8167C127.059 45.437 132.427 45.437 138.05 43.8167C138.274 43.8167 138.495 43.7668 138.697 43.6705C138.899 43.5742 139.077 43.4341 139.218 43.2602C139.359 43.0864 139.459 42.8833 139.512 42.6657C139.564 42.4481 139.568 42.2215 139.522 42.0024Z" fill="#3F3D56"/>
</g>
<defs>
<clipPath id="clip0_679_2146">
<rect width="350" height="247.175" fill="white"/>
</clipPath>
</defs>
</svg>
