<svg width="350" height="248" viewBox="0 0 350 248" fill="none" xmlns="http://www.w3.org/2000/svg">
<g clip-path="url(#clip0_679_2274)">
<path d="M20.6869 209.006L9.95655 199.922C11.1837 192.64 14.1693 185.767 18.6542 179.901C19.0148 193.025 32.462 201.814 37.0894 214.099C38.5033 217.942 39.0346 222.054 38.644 226.13C38.2534 230.206 36.9509 234.142 34.833 237.646L33.7534 247.561C27.8934 244.506 22.765 240.217 18.7217 234.988C14.6783 229.76 11.8161 223.717 10.3323 217.275C9.53563 213.654 9.19808 209.946 9.32763 206.239C14.8216 207.912 20.6869 209.006 20.6869 209.006Z" fill="#F2F2F2"/>
<path d="M321.474 226.381L328.967 214.484C336.347 214.682 343.567 216.68 350 220.303C337.06 222.493 330.238 237.041 318.723 243.34C315.117 245.277 311.121 246.377 307.031 246.56C302.942 246.742 298.864 246.001 295.1 244.393L285.135 244.708C287.341 238.477 290.87 232.798 295.481 228.063C300.092 223.328 305.674 219.649 311.843 217.279C315.317 215.984 318.94 215.132 322.627 214.743C321.738 220.419 321.474 226.381 321.474 226.381Z" fill="#F2F2F2"/>
<path d="M84.2888 187.597L42.7408 185.159L48.436 144.872L85.0483 184.345L84.2888 187.597Z" fill="#F2F2F2"/>
<path d="M79.0004 228.699L36.6929 225.85L42.334 189.229L79.1912 225.857L79.0004 228.699Z" fill="#F2F2F2"/>
<path d="M315.346 58.7517V21.5382C315.346 18.7097 314.789 15.909 313.707 13.2959C312.625 10.6827 311.039 8.30838 309.039 6.30838C307.04 4.30838 304.667 2.72189 302.054 1.6395C299.442 0.557102 296.642 0 293.815 0H215C212.172 -5.34405e-07 209.373 0.557102 206.761 1.6395C204.148 2.72189 201.775 4.30838 199.775 6.30838C197.776 8.30838 196.19 10.6827 195.108 13.2959C194.026 15.909 193.469 18.7097 193.469 21.5382V225.694C193.469 231.407 195.738 236.885 199.775 240.924C203.813 244.963 209.29 247.233 215 247.233H293.815C299.525 247.233 305.002 244.963 309.039 240.924C313.077 236.885 315.346 231.407 315.346 225.694V85.2409C315.706 85.2409 316.051 85.0978 316.306 84.843C316.56 84.5883 316.704 84.2428 316.704 83.8825V60.1101C316.704 59.7498 316.56 59.4043 316.306 59.1496C316.051 58.8948 315.706 58.7517 315.346 58.7517Z" fill="#3F3D56"/>
<path d="M310.763 21.686V225.547C310.764 229.782 309.094 233.846 306.117 236.856C303.139 239.866 299.095 241.579 294.862 241.623C294.804 241.629 294.745 241.631 294.686 241.63H215.488C211.224 241.63 207.135 239.935 204.12 236.919C201.105 233.903 199.411 229.813 199.41 225.547V21.686C199.411 17.4207 201.105 13.3303 204.12 10.3142C207.135 7.29822 211.224 5.60367 215.488 5.60328H225.099C224.626 6.76397 224.446 8.02304 224.574 9.2697C224.703 10.5164 225.135 11.7124 225.834 12.7526C226.533 13.7928 227.476 14.6452 228.582 15.2349C229.687 15.8246 230.921 16.1335 232.173 16.1344H277.326C278.578 16.131 279.809 15.8203 280.913 15.2297C282.017 14.6392 282.959 13.7867 283.656 12.7471C284.354 11.7075 284.786 10.5125 284.915 9.267C285.043 8.02148 284.864 6.76345 284.393 5.60327H294.686C298.95 5.60366 303.039 7.29821 306.054 10.3142C309.069 13.3302 310.763 17.4207 310.763 21.686Z" fill="white"/>
<path d="M193.905 79.5704C193.419 79.5698 192.953 79.3765 192.609 79.0327C192.266 78.689 192.073 78.223 192.072 77.737V65.2697C192.072 64.7834 192.265 64.3171 192.609 63.9733C192.952 63.6294 193.419 63.4363 193.905 63.4363C194.391 63.4363 194.857 63.6294 195.201 63.9733C195.544 64.3171 195.738 64.7834 195.738 65.2697V77.7369C195.737 78.223 195.544 78.689 195.2 79.0327C194.857 79.3764 194.391 79.5698 193.905 79.5704Z" fill="#3F3D56"/>
<path d="M193.538 55.3692C193.052 55.3686 192.586 55.1753 192.243 54.8316C191.899 54.4879 191.706 54.0218 191.705 53.5358V41.0685C191.705 40.5823 191.898 40.1159 192.242 39.7721C192.586 39.4283 193.052 39.2351 193.538 39.2351C194.024 39.2351 194.49 39.4283 194.834 39.7721C195.178 40.1159 195.371 40.5823 195.371 41.0685V53.5358C195.37 54.0218 195.177 54.4879 194.833 54.8316C194.49 55.1753 194.024 55.3686 193.538 55.3692Z" fill="#3F3D56"/>
<path d="M242.29 7.70036C242.291 7.21429 242.484 6.74828 242.828 6.40457C243.171 6.06086 243.637 5.86752 244.123 5.86695H256.586C256.827 5.86659 257.066 5.91374 257.288 6.00572C257.511 6.0977 257.713 6.23269 257.884 6.40298C258.054 6.57326 258.19 6.7755 258.282 6.99812C258.374 7.22073 258.422 7.45937 258.422 7.70037C258.422 7.94137 258.374 8.18 258.282 8.40261C258.19 8.62523 258.054 8.82747 257.884 8.99775C257.713 9.16804 257.511 9.30303 257.288 9.39501C257.066 9.48699 256.827 9.53414 256.586 9.53379H244.123C243.637 9.53321 243.171 9.33987 242.828 8.99616C242.484 8.65245 242.291 8.18644 242.29 7.70036Z" fill="white"/>
<path d="M193.905 100.838C193.419 100.837 192.953 100.644 192.609 100.3C192.266 99.9566 192.073 99.4906 192.072 99.0045V86.5373C192.072 86.051 192.265 85.5847 192.609 85.2409C192.952 84.897 193.419 84.7039 193.905 84.7039C194.391 84.7039 194.857 84.897 195.201 85.2409C195.544 85.5847 195.738 86.051 195.738 86.5373V99.0045C195.737 99.4906 195.544 99.9566 195.2 100.3C194.856 100.644 194.391 100.837 193.905 100.838Z" fill="#3F3D56"/>
<path d="M263.551 9.53378C264.563 9.53378 265.383 8.71293 265.383 7.70036C265.383 6.68779 264.563 5.86694 263.551 5.86694C262.538 5.86694 261.718 6.68779 261.718 7.70036C261.718 8.71293 262.538 9.53378 263.551 9.53378Z" fill="white"/>
<path d="M97.0848 94.7323L77.3264 246.774L77.2003 247.743H76.3785L76.5046 246.774L96.2794 94.6265L97.0848 94.7323Z" fill="#E5E5E5"/>
<path d="M55.9489 94.9235L34.1605 246.791L34.0222 247.759H33.2004L33.3388 246.791L55.1434 94.8096L55.9489 94.9235Z" fill="#E5E5E5"/>
<path d="M127.807 247.722L126.96 247.726L126.7 246.758L84.5512 90.1459L85.3363 89.9343L127.542 246.758L127.807 247.722Z" fill="#3F3D56"/>
<path d="M126.022 89.9284L125.239 90.1504L169.656 246.885L170.439 246.663L126.022 89.9284Z" fill="#3F3D56"/>
<path d="M161.96 218.129L121.684 226.464L121.849 227.262L162.125 218.926L161.96 218.129Z" fill="#3F3D56"/>
<path d="M154.977 193.68L114.701 202.015L114.866 202.813L155.142 194.477L154.977 193.68Z" fill="#3F3D56"/>
<path d="M147.999 169.23L108.004 176.973L108.159 177.772L148.154 170.029L147.999 169.23Z" fill="#3F3D56"/>
<path d="M141.016 144.786L101.891 152.52L102.049 153.318L141.173 145.584L141.016 144.786Z" fill="#3F3D56"/>
<path d="M55.2611 94.8954C54.6493 90.8972 55.6503 86.8196 58.0438 83.5597C60.4374 80.2998 64.0275 78.1246 68.0243 77.5126C72.0211 76.9006 76.0972 77.9019 79.356 80.2963C82.6148 82.6906 84.7893 86.2819 85.4011 90.2801L84.597 90.4033C84.3111 88.5285 83.6587 86.7284 82.6772 85.1059C81.6956 83.4833 80.4041 82.0702 78.8764 80.9471C77.3487 79.824 75.6147 79.013 73.7736 78.5605C71.9325 78.108 70.0204 78.0228 68.1463 78.3097C66.2723 78.5967 64.4731 79.2502 62.8517 80.2329C61.2302 81.2157 59.8181 82.5083 58.6962 84.0371C57.5743 85.5659 56.7645 87.3008 56.3131 89.1428C55.8616 90.9848 55.7774 92.8977 56.0652 94.7722L55.2611 94.8954Z" fill="#3F3D56"/>
<path d="M96.0069 95.0773C95.6774 93.1015 95.7402 91.08 96.1917 89.1284C96.6433 87.1768 97.4748 85.3334 98.6387 83.7033C99.8026 82.0732 101.276 80.6885 102.975 79.6282C104.674 78.5679 106.565 77.8528 108.54 77.5238C110.516 77.1948 112.537 77.2582 114.487 77.7106C116.438 78.1629 118.281 78.9952 119.91 80.1601C121.539 81.3249 122.923 82.7994 123.982 84.4992C125.041 86.1991 125.756 88.0912 126.084 90.0672L125.281 90.2008C124.651 86.4254 122.548 83.055 119.434 80.8305C116.32 78.6061 112.45 77.7097 108.676 78.3385C104.902 78.9672 101.531 81.0697 99.306 84.1835C97.0808 87.2974 96.1828 91.1678 96.8094 94.9438L96.0069 95.0773Z" fill="#3F3D56"/>
<path d="M138.044 128.289L130.226 147.316L155.7 147.131L153.109 128.247L138.044 128.289Z" fill="#FFB6B6"/>
<path d="M144.265 215.633L148.043 216.184L151.966 201.868L146.39 201.054L144.265 215.633Z" fill="#FFB6B6"/>
<path d="M143.599 213.631L149.624 214.146L149.251 216.706L154.357 221.458C154.61 221.693 154.78 222.002 154.844 222.34C154.909 222.679 154.863 223.029 154.714 223.34C154.565 223.651 154.321 223.905 154.017 224.067C153.713 224.229 153.365 224.29 153.024 224.24L145.913 223.203L145.057 220.492L144.209 222.954L141.528 222.563L143.599 213.631Z" fill="#2F2E41"/>
<path d="M100.599 205.059L103.614 207.404L114.089 196.889L109.64 193.428L100.599 205.059Z" fill="#FFB6B6"/>
<path d="M101.008 202.99L105.994 206.412L104.407 208.455L106.504 215.108C106.607 215.437 106.603 215.79 106.492 216.116C106.381 216.442 106.168 216.724 105.885 216.921C105.603 217.118 105.264 217.219 104.92 217.21C104.576 217.2 104.243 217.081 103.971 216.87L98.2987 212.457L98.8912 209.676L96.9391 211.399L94.8003 209.736L101.008 202.99Z" fill="#2F2E41"/>
<path d="M131.664 142.801L129.155 146.125L122.478 175.189L107.299 195.695L112.402 200.596L131.761 181.808L141.262 161.734L146.069 180.276L144.848 205.099L152.985 204.692C155.19 175.885 158.639 146.244 154.576 137.919C151.898 140.256 148.772 142.022 145.388 143.109C142.004 144.196 138.435 144.58 134.897 144.24L131.664 142.801Z" fill="#2F2E41"/>
<path d="M145.093 97.5199L151.512 104.541C152.921 106.082 153.814 108.024 154.066 110.097C154.181 111.038 154.162 111.991 154.01 112.927L152.626 123.068L155.067 138.531C155.067 138.531 151.588 140.654 144.897 145.043C142.166 146.834 129.422 146.805 129.438 146.263C129.51 143.756 131.752 136.998 132.286 128.765C132.944 118.603 132.081 106.475 134.32 100.686C137.053 93.6189 145.093 97.5199 145.093 97.5199Z" fill="#FF6F61"/>
<path d="M123.067 142.512C123.347 142.104 123.534 141.64 123.615 141.153C123.697 140.665 123.67 140.165 123.538 139.689C123.405 139.212 123.17 138.771 122.848 138.395C122.527 138.019 122.127 137.719 121.677 137.515L121.928 129.788L117.271 128.491L117.07 139.407C116.777 140.186 116.78 141.046 117.079 141.823C117.377 142.6 117.95 143.241 118.689 143.624C119.429 144.006 120.283 144.105 121.089 143.9C121.896 143.695 122.6 143.201 123.067 142.512Z" fill="#FFB6B6"/>
<path d="M116.856 111.323C116.993 110.963 117.204 110.635 117.474 110.361C117.745 110.087 118.069 109.871 118.427 109.729C120.905 108.688 131.62 99.9291 132.015 100.094L135.416 98.4141C135.542 98.4155 138.893 98.4948 140.536 100.359C140.878 100.753 141.131 101.216 141.277 101.716C141.423 102.217 141.458 102.743 141.382 103.259C140.901 107.699 125.711 117.674 124.101 117.606L122.396 130.214L123.06 135.031L116.848 135.207L114.934 128.116C114.659 127.598 114.312 117.802 116.856 111.323Z" fill="#FF6F61"/>
<path d="M141.759 104.588C142.262 101.141 140.326 98.0048 137.436 97.583C134.546 97.1613 131.796 99.6138 131.293 103.061C130.79 106.508 132.726 109.644 135.616 110.066C138.506 110.488 141.256 108.035 141.759 104.588Z" fill="#FF6F61"/>
<path d="M95.0667 127.126L94.9092 126.328L132.692 117.777V118.591L95.0667 127.126Z" fill="#3F3D56"/>
<path d="M262.332 69.6157H247.841C244.716 69.6157 242.182 72.1506 242.182 75.2775V75.2775C242.182 78.4045 244.716 80.9393 247.841 80.9393H262.332C265.458 80.9393 267.992 78.4045 267.992 75.2775C267.992 72.1506 265.458 69.6157 262.332 69.6157Z" fill="#E6E6E6"/>
<path d="M289.217 92.2629H220.957C217.831 92.2629 215.297 94.7978 215.297 97.9247V97.9248C215.297 101.052 217.831 103.587 220.957 103.587H289.217C292.343 103.587 294.877 101.052 294.877 97.9247C294.877 94.7978 292.343 92.2629 289.217 92.2629Z" fill="#E6E6E6"/>
<path d="M259.927 109.213H191.667C188.541 109.213 186.007 111.748 186.007 114.875V114.875C186.007 118.002 188.541 120.536 191.667 120.536H259.927C263.053 120.536 265.587 118.002 265.587 114.875C265.587 111.748 263.053 109.213 259.927 109.213Z" fill="#FF6F61"/>
<path d="M349.904 247.153C349.904 247.216 349.892 247.279 349.867 247.338C349.843 247.397 349.807 247.451 349.762 247.496C349.717 247.541 349.664 247.576 349.605 247.601C349.546 247.625 349.483 247.637 349.42 247.637L108.311 247.722L107.465 247.727L57.7051 247.743H56.8833L14.5269 247.759H13.7052L0.484097 247.763C0.355707 247.763 0.232573 247.712 0.141788 247.621C0.0510021 247.53 0 247.407 0 247.279C0 247.15 0.0510021 247.027 0.141788 246.936C0.232573 246.846 0.355707 246.795 0.484097 246.795L13.8435 246.791H14.6653L57.0094 246.774H57.8312L107.205 246.758H108.047L150.119 246.742H150.672L349.42 246.668C349.483 246.668 349.546 246.681 349.605 246.705C349.664 246.729 349.717 246.765 349.762 246.81C349.807 246.855 349.843 246.908 349.867 246.967C349.892 247.026 349.904 247.089 349.904 247.153Z" fill="#CACACA"/>
<path d="M151.885 90.5086C150.671 92.1224 148.943 93.2743 146.987 93.7746C145.031 94.275 142.963 94.094 141.123 93.2614C139.283 92.4288 137.782 90.9943 136.866 89.1941C135.95 87.3939 135.675 85.3354 136.084 83.3576C136.494 81.3797 137.565 79.6005 139.121 78.3129C140.677 77.0253 142.625 76.3062 144.644 76.2738C146.663 76.2415 148.632 76.898 150.229 78.1351C151.825 79.3722 152.952 81.1163 153.425 83.08C153.451 83.1865 153.472 83.2925 153.493 83.4025C153.743 84.6333 153.729 85.9032 153.452 87.1281C153.175 88.3531 152.641 89.5053 151.885 90.5086Z" fill="#FFB6B6"/>
<path d="M154.198 83.5052C153.974 82.3909 154.058 82.9667 153.83 81.8558C153.877 82.3936 153.759 82.9329 153.493 83.4024L143.023 81.8745L143.911 75.7859C147.156 75.0175 150.305 74.4202 151.789 76.9355C153.403 77.1712 154.857 78.0386 155.832 79.3469C156.807 80.6553 157.223 82.2975 156.987 83.9122L154.198 83.5052Z" fill="#2F2E41"/>
<path d="M148.018 99.8883C148.026 99.7744 148.031 99.6559 148.032 99.5408C148.012 98.6931 147.902 97.8499 147.704 97.0254C147.526 96.1317 147.344 95.2333 147.162 94.3391C147.331 95.9389 146.974 97.5501 146.144 98.928C144.577 97.293 145.613 94.9262 143.302 94.589C137.747 93.7784 133.227 87.8188 134.038 82.2577C134.848 76.7007 137.837 72.8928 143.392 73.7035C148.952 74.5147 153.089 77.7176 152.387 83.2904C145.309 83.9025 149.392 99.5131 148.018 99.8883Z" fill="#2F2E41"/>
<path d="M135.796 78.7761C137.845 78.7761 139.506 77.1143 139.506 75.0644C139.506 73.0145 137.845 71.3528 135.796 71.3528C133.747 71.3528 132.085 73.0145 132.085 75.0644C132.085 77.1143 133.747 78.7761 135.796 78.7761Z" fill="#2F2E41"/>
<path d="M140.197 71.9998C139.851 71.2508 139.326 70.5987 138.667 70.1013C138.009 69.6039 137.239 69.2765 136.424 69.1482C136.998 69.4078 137.499 69.8047 137.884 70.3038C138.268 70.803 138.524 71.3891 138.629 72.0105C138.734 72.6319 138.684 73.2695 138.484 73.8671C138.285 74.4648 137.941 75.0042 137.484 75.4378L138.234 74.7928C138.439 74.967 138.694 75.0713 138.961 75.0905C139.229 75.1096 139.496 75.0426 139.724 74.8992C139.946 74.7491 140.132 74.5505 140.267 74.3183C140.402 74.0861 140.483 73.8263 140.503 73.5585C140.539 73.0211 140.433 72.4837 140.197 71.9998Z" fill="#2F2E41"/>
<path d="M187.429 111.257C186.988 111.034 186.503 110.91 186.009 110.894C185.515 110.878 185.023 110.971 184.569 111.166C184.114 111.36 183.708 111.652 183.379 112.021C183.049 112.39 182.805 112.827 182.662 113.3L174.974 114.079L174.308 118.869L185.15 117.616C185.961 117.802 186.812 117.685 187.543 117.286C188.273 116.886 188.832 116.233 189.113 115.449C189.393 114.665 189.377 113.806 189.067 113.033C188.756 112.26 188.174 111.629 187.429 111.257Z" fill="#FFB6B6"/>
<path d="M157.354 121.565C156.979 121.476 156.626 121.311 156.318 121.079C156.011 120.848 155.754 120.554 155.566 120.218C154.204 117.9 144.101 108.442 144.211 108.029L142.095 104.88C142.079 104.755 141.712 101.423 143.341 99.545C143.685 99.1538 144.11 98.8418 144.587 98.6305C145.063 98.4193 145.58 98.3137 146.101 98.321C150.565 98.2074 161.787 112.339 161.934 113.944L175.334 113.558L180.018 112.259L181.019 118.394L174.247 121.236C173.771 121.577 164.111 123.224 157.354 121.565Z" fill="#FF6F61"/>
</g>
<defs>
<clipPath id="clip0_679_2274">
<rect width="350" height="247.763" fill="white"/>
</clipPath>
</defs>
</svg>
