<svg width="350" height="308" viewBox="0 0 350 308" fill="none" xmlns="http://www.w3.org/2000/svg">
<g clip-path="url(#clip0_679_2190)">
<path d="M267.749 188.629C267.393 187.534 264.687 188.016 264.428 187.037C264.169 186.061 266.765 185.243 268.756 182.494C269.115 181.998 271.377 178.874 270.509 177.56C268.865 175.069 257.421 181.273 254.674 177.791C254.072 177.027 253.823 175.716 252.028 173.275C251.313 172.304 250.855 171.835 250.307 171.849C249.53 171.868 249.252 172.843 248.031 174.608C246.199 177.254 245.538 176.922 244.332 179.091C243.436 180.701 243.33 181.73 242.684 181.79C241.77 181.876 241.392 179.872 240.275 179.794C239.136 179.714 237.995 181.695 237.43 183.242C236.369 186.146 237.026 188.366 237.171 190.578C237.33 192.981 236.958 196.5 234.352 201.017L209.773 240.266C215.052 232.265 230.036 210.446 236.073 202.443C237.815 200.132 239.688 197.812 242.571 197.376C245.346 196.956 248.723 198.332 253.436 198.252C253.987 198.242 255.519 198.197 255.891 197.383C256.199 196.71 255.434 196.125 255.713 195.493C256.086 194.644 257.765 195.008 260.054 194.445C261.667 194.048 262.764 193.391 263.706 192.827C263.991 192.657 268.225 190.086 267.749 188.629Z" fill="#F2F2F2"/>
<path d="M203.372 197.793C202.733 197.652 202.188 199.122 201.634 198.967C201.081 198.813 201.43 197.3 200.658 195.528C200.519 195.208 199.642 193.194 198.748 193.241C197.053 193.332 196.79 200.751 194.292 201.098C193.744 201.174 193.03 200.917 191.317 201.096C190.635 201.168 190.273 201.258 190.122 201.531C189.907 201.919 190.304 202.337 190.816 203.447C191.584 205.112 191.23 205.341 191.944 206.56C192.474 207.466 192.947 207.815 192.791 208.15C192.569 208.624 191.478 208.232 191.118 208.759C190.75 209.296 191.391 210.429 191.986 211.153C193.102 212.513 194.378 212.83 195.503 213.397C196.726 214.013 198.342 215.211 199.802 217.796L211.93 241.212C209.535 236.306 203.174 222.64 200.997 217.361C200.368 215.837 199.772 214.246 200.39 212.702C200.985 211.216 202.634 209.952 203.954 207.61C204.108 207.337 204.528 206.57 204.237 206.152C203.997 205.806 203.489 206.014 203.26 205.694C202.952 205.266 203.615 204.545 203.999 203.257C204.27 202.348 204.265 201.619 204.261 200.993C204.26 200.804 204.222 197.979 203.372 197.793Z" fill="#F2F2F2"/>
<path d="M215.472 203.506L215.853 199.978L216.087 199.757C217.169 198.732 217.845 197.646 218.099 196.529C218.14 196.351 218.171 196.172 218.203 195.989C218.33 195.263 218.487 194.362 219.182 193.425C219.572 192.903 220.602 191.724 221.664 192.136C221.951 192.244 222.145 192.43 222.279 192.627C222.313 192.593 222.347 192.559 222.384 192.522C222.843 192.075 223.164 191.911 223.473 191.753C223.711 191.632 223.956 191.507 224.372 191.174C224.554 191.028 224.7 190.897 224.823 190.787C225.195 190.453 225.672 190.063 226.325 190.217C227.018 190.407 227.255 191.069 227.412 191.507C227.694 192.289 227.78 192.826 227.838 193.183C227.858 193.313 227.882 193.46 227.9 193.507C228.052 193.89 229.954 193.989 230.67 194.03C232.279 194.118 233.671 194.194 234.006 195.298C234.246 196.088 233.745 196.949 232.475 197.926C232.079 198.23 231.683 198.44 231.338 198.597C231.55 198.798 231.719 199.071 231.73 199.443C231.753 200.324 230.851 201 229.05 201.456C228.603 201.571 228.001 201.722 227.213 201.684C226.842 201.665 226.517 201.608 226.24 201.555C226.199 201.713 226.123 201.878 225.986 202.034C225.585 202.494 224.938 202.611 224.059 202.352C223.089 202.081 222.322 201.712 221.646 201.388C221.055 201.106 220.546 200.865 220.118 200.799C219.323 200.688 218.582 201.18 217.695 201.834L215.472 203.506Z" fill="#F2F2F2"/>
<path d="M221.816 183.413L218.315 183.938L218.042 183.767C216.779 182.978 215.559 182.598 214.416 182.635C214.235 182.641 214.053 182.656 213.869 182.672C213.137 182.733 212.226 182.809 211.146 182.372C210.544 182.127 209.144 181.428 209.272 180.293C209.304 179.988 209.434 179.753 209.591 179.572C209.549 179.548 209.508 179.524 209.462 179.497C208.915 179.166 208.675 178.896 208.445 178.636C208.267 178.437 208.084 178.23 207.658 177.912C207.471 177.773 207.307 177.665 207.169 177.573C206.753 177.297 206.255 176.933 206.239 176.261C206.246 175.542 206.825 175.144 207.208 174.88C207.891 174.409 208.387 174.189 208.717 174.043C208.837 173.99 208.973 173.929 209.014 173.899C209.345 173.655 208.958 171.786 208.817 171.082C208.493 169.5 208.213 168.131 209.194 167.526C209.895 167.093 210.853 167.36 212.119 168.344C212.513 168.65 212.816 168.981 213.054 169.275C213.194 169.019 213.415 168.786 213.772 168.681C214.616 168.435 215.497 169.138 216.394 170.768C216.618 171.173 216.917 171.718 217.08 172.492C217.156 172.856 217.184 173.186 217.203 173.468C217.366 173.468 217.544 173.5 217.729 173.592C218.275 173.864 218.552 174.462 218.524 175.38C218.509 176.389 218.348 177.226 218.207 177.964C218.084 178.608 217.981 179.163 218.026 179.594C218.12 180.393 218.783 180.987 219.64 181.681L221.816 183.413Z" fill="#F2F2F2"/>
<path d="M222.288 172.874L222.67 169.346L222.903 169.125C223.985 168.1 224.662 167.014 224.916 165.897C224.956 165.719 224.988 165.54 225.02 165.357C225.146 164.631 225.303 163.73 225.999 162.793C226.389 162.271 227.419 161.092 228.481 161.504C228.768 161.612 228.961 161.798 229.096 161.996C229.129 161.961 229.164 161.927 229.201 161.89C229.66 161.443 229.981 161.279 230.29 161.122C230.528 161 230.773 160.875 231.188 160.543C231.37 160.397 231.516 160.265 231.639 160.155C232.012 159.821 232.489 159.431 233.142 159.585C233.834 159.775 234.072 160.437 234.229 160.875C234.51 161.657 234.597 162.194 234.654 162.551C234.675 162.681 234.699 162.828 234.717 162.875C234.868 163.258 236.771 163.357 237.486 163.399C239.095 163.486 240.487 163.562 240.822 164.666C241.062 165.456 240.562 166.317 239.291 167.295C238.895 167.599 238.5 167.808 238.155 167.965C238.367 168.166 238.536 168.439 238.546 168.812C238.57 169.693 237.668 170.369 235.867 170.824C235.419 170.939 234.817 171.09 234.03 171.052C233.659 171.034 233.334 170.977 233.056 170.923C233.015 171.082 232.939 171.246 232.803 171.402C232.402 171.862 231.755 171.979 230.876 171.72C229.906 171.449 229.139 171.08 228.463 170.757C227.872 170.474 227.363 170.233 226.935 170.167C226.14 170.056 225.399 170.548 224.512 171.203L222.288 172.874Z" fill="#F2F2F2"/>
<path d="M210.935 240.467L210.316 239.854L209.456 239.763C209.46 239.682 209.454 239.492 209.448 239.196C209.415 237.573 209.312 232.634 209.998 225.045C210.477 219.748 211.278 214.37 212.378 209.06C213.48 203.741 214.623 199.783 215.542 196.603C216.235 194.204 216.934 191.928 217.617 189.712C219.44 183.79 221.161 178.196 222.226 171.815C222.465 170.391 222.96 167.426 221.946 163.927C221.358 161.897 220.351 159.987 218.951 158.25L220.306 157.154C221.85 159.073 222.964 161.188 223.617 163.442C224.742 167.322 224.202 170.552 223.943 172.105C222.858 178.598 221.12 184.246 219.279 190.224C218.6 192.433 217.903 194.699 217.212 197.088C216.302 200.239 215.169 204.162 214.082 209.413C212.994 214.66 212.204 219.971 211.73 225.202C211.053 232.695 211.154 237.561 211.188 239.159C211.205 240.013 211.209 240.192 210.935 240.467Z" fill="#F2F2F2"/>
<path d="M215.235 160.258C215.166 160.242 215.096 160.225 215.026 160.204C213.597 159.803 212.451 158.636 211.619 156.737C211.229 155.844 211.137 154.904 210.954 153.029C210.925 152.74 210.798 151.278 210.954 149.34C211.056 148.073 211.192 147.564 211.536 147.165C211.918 146.72 212.432 146.465 212.976 146.337C212.99 146.17 213.045 146.006 213.154 145.85C213.601 145.205 214.35 145.47 214.756 145.608C214.961 145.682 215.216 145.776 215.502 145.824C215.953 145.902 216.222 145.823 216.63 145.704C217.02 145.591 217.505 145.45 218.175 145.462C219.497 145.48 220.476 146.076 220.799 146.272C222.499 147.295 223.085 148.929 223.765 150.82C223.9 151.199 224.348 152.569 224.452 154.333C224.527 155.606 224.361 156.127 224.17 156.5C223.78 157.266 223.183 157.621 221.702 158.368C220.154 159.151 219.378 159.542 218.741 159.744C217.26 160.21 216.33 160.503 215.235 160.258Z" fill="#F2F2F2"/>
<path d="M59.2768 153.063C58.1288 153.015 57.6316 155.723 56.6256 155.624C55.6233 155.525 55.768 152.802 53.8961 149.97C53.5585 149.459 51.4311 146.241 49.8991 146.595C46.9952 147.267 48.7846 160.183 44.5691 161.542C43.6439 161.84 42.3313 161.614 39.4211 162.445C38.2634 162.775 37.6648 163.041 37.4859 163.56C37.2321 164.297 38.0453 164.899 39.2668 166.664C41.0989 169.31 40.5568 169.814 42.1609 171.707C43.3517 173.111 44.2758 173.571 44.1062 174.199C43.8663 175.087 41.8608 174.74 41.3969 175.761C40.9236 176.803 42.375 178.567 43.6231 179.64C45.9652 181.653 48.2694 181.814 50.3876 182.452C52.6894 183.145 55.8477 184.727 59.1556 188.755L87.2263 225.577C81.5977 217.819 66.4556 196.11 61.0908 187.639C59.5421 185.194 58.0301 182.623 58.6319 179.764C59.2113 177.012 61.6801 174.324 63.2562 169.871C63.4403 169.351 63.9342 167.897 63.3042 167.262C62.7834 166.737 61.9688 167.25 61.4752 166.767C60.8132 166.12 61.7415 164.671 62.0166 162.325C62.2105 160.671 61.9811 159.412 61.7838 158.329C61.7243 158.003 60.805 153.128 59.2768 153.063Z" fill="#F2F2F2"/>
<path d="M45.2914 216.709C44.9365 217.26 46.1193 218.286 45.7805 218.752C45.443 219.217 44.1511 218.36 42.2242 218.464C41.8767 218.483 39.6869 218.6 39.4184 219.456C38.9094 221.079 45.7504 223.925 45.1997 226.391C45.0789 226.932 44.5892 227.512 44.1564 229.184C43.9842 229.849 43.9418 230.22 44.1443 230.458C44.4317 230.795 44.9613 230.569 46.1779 230.477C48.0025 230.339 48.0929 230.751 49.4824 230.508C50.5139 230.328 51.0058 230.006 51.2642 230.271C51.6299 230.645 50.8811 231.531 51.2473 232.054C51.6211 232.587 52.9039 232.383 53.7893 232.078C55.4508 231.507 56.1944 230.42 57.118 229.562C58.1217 228.63 59.8073 227.532 62.7344 227.067L88.8654 223.883C83.4423 224.414 68.4424 225.598 62.7465 225.793C61.1022 225.85 59.407 225.852 58.1806 224.731C56.9998 223.652 56.3959 221.662 54.6701 219.601C54.4686 219.361 53.899 218.698 53.4064 218.825C52.9991 218.93 53.0153 219.479 52.6365 219.582C52.1284 219.721 51.6867 218.846 50.6174 218.034C49.8634 217.461 49.1807 217.211 48.5935 216.996C48.4165 216.931 45.7639 215.976 45.2914 216.709Z" fill="#F2F2F2"/>
<path d="M54.8689 207.351L51.7056 205.758L51.5804 205.461C51.0017 204.086 50.2242 203.071 49.2689 202.441C49.1171 202.341 48.9601 202.248 48.8003 202.154C48.1668 201.781 47.3792 201.318 46.7477 200.337C46.3965 199.789 45.6551 198.408 46.4122 197.555C46.6133 197.324 46.8552 197.208 47.0869 197.151C47.0666 197.107 47.0468 197.062 47.0251 197.015C46.7681 196.427 46.7276 196.069 46.6885 195.723C46.6584 195.458 46.6277 195.183 46.462 194.677C46.3895 194.455 46.3178 194.272 46.2577 194.118C46.0765 193.651 45.8785 193.067 46.2518 192.508C46.6715 191.924 47.3733 191.933 47.8379 191.939C48.6669 191.949 49.1995 192.056 49.5528 192.127C49.6817 192.153 49.8271 192.182 49.878 192.182C50.2888 192.173 51.0476 190.422 51.337 189.765C51.9823 188.285 52.5406 187.005 53.6897 187.077C54.5121 187.128 55.1418 187.9 55.6101 189.435C55.7556 189.913 55.8131 190.358 55.8389 190.737C56.1009 190.608 56.4154 190.545 56.7669 190.666C57.5983 190.953 57.9143 192.036 57.7093 193.886C57.6595 194.346 57.5903 194.965 57.2785 195.691C57.1314 196.033 56.9643 196.318 56.8176 196.559C56.951 196.653 57.0782 196.782 57.1762 196.965C57.4656 197.503 57.3482 198.151 56.7981 198.885C56.2051 199.701 55.5922 200.292 55.0526 200.813C54.582 201.269 54.1782 201.663 53.9668 202.041C53.5842 202.748 53.7843 203.617 54.0855 204.679L54.8689 207.351Z" fill="#F2F2F2"/>
<path d="M38.3135 194.357L37.5779 197.828L37.3229 198.025C36.1431 198.934 35.3602 199.946 34.9948 201.032C34.9367 201.204 34.8874 201.38 34.8371 201.559C34.6379 202.267 34.3905 203.149 33.6037 204.01C33.1636 204.489 32.0197 205.558 31.0044 205.04C30.7301 204.904 30.5564 204.699 30.4426 204.489C30.4055 204.52 30.3677 204.55 30.3271 204.583C29.8255 204.981 29.4896 205.112 29.166 205.237C28.9173 205.334 28.6606 205.433 28.2139 205.722C28.0179 205.849 27.8596 205.965 27.7261 206.062C27.3216 206.356 26.8078 206.696 26.1737 206.476C25.5041 206.217 25.3348 205.535 25.2223 205.083C25.0215 204.277 24.9896 203.733 24.9686 203.373C24.9612 203.241 24.9522 203.093 24.939 203.043C24.8269 202.647 22.9445 202.356 22.2366 202.242C20.6448 201.992 19.2675 201.775 19.0459 200.643C18.8867 199.832 19.4718 199.026 20.8346 198.183C21.259 197.92 21.6739 197.752 22.0326 197.631C21.842 197.409 21.7015 197.12 21.7288 196.749C21.7947 195.87 22.7598 195.289 24.5977 195.019C25.0545 194.95 25.6688 194.86 26.4486 194.979C26.8159 195.034 27.1335 195.124 27.4038 195.205C27.4609 195.052 27.5528 194.896 27.7045 194.754C28.1497 194.338 28.8056 194.287 29.6537 194.634C30.5915 195.002 31.3169 195.446 31.9571 195.837C32.5164 196.178 32.9988 196.47 33.4174 196.578C34.197 196.77 34.9842 196.356 35.933 195.794L38.3135 194.357Z" fill="#F2F2F2"/>
<path d="M28.6303 190.223L25.4671 188.629L25.3418 188.332C24.7631 186.958 23.9856 185.942 23.0304 185.313C22.8785 185.212 22.7216 185.12 22.5618 185.026C21.9283 184.653 21.1407 184.19 20.5091 183.208C20.1579 182.66 19.4166 181.28 20.1736 180.427C20.3747 180.196 20.6166 180.079 20.8483 180.022C20.8281 179.978 20.8083 179.934 20.7865 179.886C20.5296 179.299 20.489 178.94 20.45 178.595C20.4198 178.329 20.3891 178.055 20.2235 177.549C20.1509 177.327 20.0792 177.144 20.0191 176.99C19.8379 176.523 19.6399 175.938 20.0132 175.379C20.433 174.796 21.1347 174.805 21.5994 174.811C22.4283 174.82 22.961 174.927 23.3142 174.998C23.4431 175.025 23.5886 175.053 23.6394 175.053C24.0503 175.045 24.809 173.294 25.0984 172.636C25.7437 171.157 26.3021 169.876 27.4512 169.949C28.2735 170 28.9033 170.772 29.3715 172.307C29.5171 172.785 29.5746 173.23 29.6003 173.608C29.8623 173.48 30.1769 173.417 30.5283 173.537C31.3597 173.824 31.6757 174.907 31.4707 176.758C31.4209 177.218 31.3517 177.836 31.04 178.562C30.8928 178.904 30.7258 179.189 30.579 179.431C30.7124 179.525 30.8396 179.654 30.9377 179.837C31.2271 180.374 31.1096 181.023 30.5595 181.757C29.9665 182.573 29.3537 183.163 28.814 183.685C28.3435 184.141 27.9396 184.534 27.7283 184.913C27.3457 185.62 27.5458 186.488 27.8469 187.55L28.6303 190.223Z" fill="#F2F2F2"/>
<path d="M87.8211 224.557L87.0314 224.923L86.6449 225.699C86.5705 225.667 86.3913 225.606 86.1122 225.508C84.5841 224.971 79.9323 223.337 73.0806 220.035C68.2978 217.729 63.5529 215.094 58.9754 212.201C54.3907 209.304 51.0929 206.844 48.442 204.868C46.4428 203.377 44.5613 201.923 42.7292 200.506C37.8335 196.72 33.2086 193.146 27.6191 189.91C26.3716 189.187 23.7743 187.684 20.1488 187.41C18.0459 187.251 15.9078 187.528 13.7949 188.234L13.2448 186.578C15.5788 185.8 17.9462 185.496 20.281 185.672C24.3008 185.975 27.1309 187.613 28.4907 188.4C34.1789 191.693 38.848 195.303 43.7907 199.125C45.6166 200.536 47.4896 201.985 49.4807 203.469C52.1069 205.428 55.3762 207.866 59.902 210.726C64.4245 213.584 69.1116 216.187 73.8338 218.464C80.5993 221.724 85.182 223.333 86.6875 223.862C87.4911 224.144 87.6594 224.203 87.8211 224.557Z" fill="#F2F2F2"/>
<path d="M14.3697 192.425C14.3308 192.485 14.29 192.545 14.2458 192.603C13.3704 193.804 11.8787 194.471 9.81225 194.587C8.84119 194.64 7.93059 194.397 6.11457 193.912C5.83435 193.838 4.42314 193.445 2.66663 192.62C1.51866 192.081 1.09086 191.775 0.838065 191.312C0.555974 190.798 0.498038 190.226 0.568916 189.67C0.417357 189.598 0.283304 189.489 0.176089 189.333C-0.269967 188.687 0.239965 188.077 0.511123 187.744C0.651648 187.577 0.8285 187.371 0.974233 187.118C1.20515 186.723 1.22523 186.442 1.25745 186.018C1.28798 185.612 1.32595 185.108 1.57185 184.483C2.05202 183.248 2.9515 182.538 3.24774 182.303C4.79986 181.066 6.53177 181.087 8.537 181.112C8.93853 181.118 10.3759 181.177 12.0613 181.698C13.2772 182.073 13.7058 182.412 13.9872 182.721C14.5664 183.355 14.6892 184.04 14.8685 185.692C15.0579 187.419 15.152 188.285 15.1172 188.953C15.0339 190.507 14.9817 191.483 14.3697 192.425Z" fill="#F2F2F2"/>
<path d="M34.2759 242.28C34.2759 242.559 34.6665 242.784 35.1528 242.784H314.501C314.987 242.784 315.378 242.559 315.378 242.28C315.378 242.001 314.987 241.777 314.501 241.777H35.1528C34.6665 241.777 34.2759 242.001 34.2759 242.28Z" fill="#CCCCCC"/>
<path d="M138.951 77.0852C146.397 77.0852 152.433 71.0356 152.433 63.5731C152.433 56.1106 146.397 50.061 138.951 50.061C131.506 50.061 125.47 56.1106 125.47 63.5731C125.47 71.0356 131.506 77.0852 138.951 77.0852Z" fill="#FF6884"/>
<path d="M199.732 240.014C199.809 240.66 199.83 241.262 199.787 241.853H167.362C167.067 241.262 166.816 240.649 166.598 240.014C162.633 228.597 169.153 209.595 160.886 181.421C154.748 160.514 143.292 144.161 137.952 136.543C131.388 127.173 123.951 118.526 115.335 104.712C113.467 101.724 111.545 98.4842 109.557 94.9487C108.891 93.7665 101.214 80.0515 101.913 79.6246C102.24 79.4275 104.272 82.1968 104.96 83.1272C111.032 91.3585 114.559 94.9597 119.616 100.881C122.684 104.472 126.31 108.905 131.399 115.746C144.45 133.27 150.97 142.027 153.241 148.583C153.842 150.335 157.042 159.814 163.07 171.57C166.15 177.568 167.69 180.567 168.531 180.326C170.912 179.637 167.701 154.8 157.61 129.975C155.884 125.75 154.596 123.047 152.149 117.935C148.174 109.594 126.037 63.2386 109.765 35.491C107.723 31.9992 105.768 28.814 103.966 26.0228C103.616 25.4974 103.278 24.9829 102.95 24.4904C100.679 21.0972 98.6692 18.4154 96.9983 16.686C96.1137 15.7666 93.864 13.1614 89.3536 7.92937C87.5625 5.84964 86.252 4.30631 85.3674 3.17885C85.2363 3.01471 85.1162 2.85049 85.018 2.70819C83.9477 1.30716 83.6419 0.628456 83.8931 0.267292C84.2535 -0.247196 85.6404 0.0483643 87.1584 0.584697C87.3223 0.639414 87.497 0.705085 87.6608 0.770755C89.3099 1.38372 90.9808 2.18281 91.5378 2.45646C96.6488 4.91927 101.64 9.3304 106.259 14.5735C107.974 16.5109 109.623 18.5577 111.217 20.6594C116.35 27.4457 120.828 34.8342 124.213 40.9092C128.363 48.3961 130.853 53.9019 130.853 53.9019C142.441 79.5479 155.295 108.883 155.972 108.631C156.714 108.357 142.462 71.8421 138.312 52.0082C136.925 45.3641 136.674 40.5917 138.498 39.6723C138.564 39.6394 138.629 39.6066 138.706 39.5847C138.99 39.4862 139.252 39.4971 139.394 39.5081C139.394 39.5081 141.086 39.2891 142.866 39.6723C145.083 40.1539 147.606 46.3382 150.063 55.0183C156.452 77.3916 162.524 116.293 162.524 116.293C168.596 155.205 177.814 186.697 179.998 186.346C181.21 186.149 179.474 176.375 181.09 160.076C182.226 148.649 183.514 148.999 187.643 128.333C194.195 95.5507 197.471 79.1648 197.471 79.0773C197.439 78.3877 197.351 76.9975 197.559 75.5527C197.777 73.9874 198.334 72.3456 199.656 71.4152C201.665 69.9922 204.898 70.6052 206.208 71.4152C207.257 72.0719 207.792 73.276 207.912 75.0054C208.633 85.8855 193.038 117.431 187.643 160.076C184.956 181.322 183.482 192.914 187.643 208.238C191.76 223.431 198.935 233.107 199.732 240.014Z" fill="#CCCCCC"/>
<path d="M253.656 236.662L256.406 228.155L281.467 239.166L279.604 244.93L253.656 236.662Z" fill="#A0616A"/>
<path d="M273.689 235.308L273.885 238.71L275.634 239.387C275.634 239.387 273.341 239.297 271.45 242.867L272.971 243.973C272.971 243.973 274.071 246.072 277.174 246.993L285.595 249.174L286.623 246.327L281.197 243.69C281.197 243.69 280.227 242.418 287.656 241.188C287.656 241.188 290.164 240.646 290.487 233.741C290.531 232.792 289.975 231.904 289.087 231.572C288.597 231.388 288.073 231.404 287.674 231.953C286.658 233.353 286.59 235.079 284.957 235.603C283.325 236.127 273.689 235.308 273.689 235.308Z" fill="#2F2E41"/>
<path d="M238.264 255.357L241.645 247.081L265.809 259.949L263.518 265.557L238.264 255.357Z" fill="#A0616A"/>
<path d="M258.342 255.516L258.282 258.923L259.975 259.73C259.975 259.73 257.695 259.467 255.542 262.885L256.976 264.103C256.976 264.103 257.915 266.278 260.94 267.431L269.173 270.24L270.413 267.478L265.2 264.44C265.2 264.44 264.328 263.099 271.828 262.432C271.828 262.432 274.369 262.08 275.21 255.22C275.325 254.277 274.837 253.35 273.977 252.951C273.502 252.731 272.978 252.707 272.539 253.225C271.421 254.544 271.223 256.26 269.556 256.66C267.889 257.059 258.342 255.516 258.342 255.516Z" fill="#2F2E41"/>
<path d="M194.5 165.888C195.463 166.819 197.941 164.782 198.033 166.12C198.125 167.459 195.83 172.161 195.003 173.216C194.592 173.741 194.088 174.187 193.682 174.715C193.275 175.243 192.962 175.89 193.026 176.554C193.139 177.709 194.304 178.472 194.696 179.564C195.152 180.836 194.475 182.211 193.801 183.382C193.22 184.391 192.617 185.405 191.792 186.225C190.966 187.046 189.883 187.664 188.721 187.703C187.242 187.752 185.902 186.881 184.722 185.986C183.587 185.125 182.485 184.198 181.626 183.061C180.766 181.924 180.159 180.555 180.127 179.13C180.087 177.341 180.958 175.624 182.177 174.317C183.396 173.01 184.942 172.06 186.501 171.189C189.127 169.723 191.851 168.433 194.649 167.331" fill="#2F2E41"/>
<path d="M189.517 181.921C194.194 181.921 197.985 178.122 197.985 173.434C197.985 168.747 194.194 164.948 189.517 164.948C184.841 164.948 181.05 168.747 181.05 173.434C181.05 178.122 184.841 181.921 189.517 181.921Z" fill="#A0616A"/>
<path d="M201.902 197.458L210.699 212.52L227.167 221.244L222.888 225.225L206.88 219.173L195.794 204.902L196.692 197.959L201.902 197.458Z" fill="#A0616A"/>
<path d="M183.785 183.083L191.436 185.089L191.326 188.771L197.81 199.874C197.81 199.874 203.945 206.923 198.676 212.036L201.895 215.663L180.076 224.787L170.486 197.688L179.233 187.225L183.785 183.083Z" fill="#FF6F61"/>
<path d="M189.96 189.572C189.96 189.572 194.578 184.289 198.163 189.172C201.749 194.054 203.535 199.625 203.535 199.625L195.074 203.67L189.96 189.572Z" fill="#FF6F61"/>
<path d="M178.433 223.545C178.433 223.545 197.504 212.54 201.392 214.487L208.733 223.602L215.627 223.785L245.676 220.645L260.579 229.77L254.254 237.158L243.991 232.148L228.758 237.549C228.758 237.549 234.314 238.193 234.491 241.95L246.317 248.066L238.033 255.867L221.942 247.474C221.942 247.474 194.37 245.831 185.812 236.505C177.254 227.178 178.433 223.545 178.433 223.545Z" fill="#2F2E41"/>
<path d="M184.145 179.93L185.395 177.359C185.395 177.359 194.828 168.699 197.567 171.504L197.88 175.181C197.88 175.181 199.566 174.928 199.05 172.473C198.533 170.018 199.526 171.09 199.526 171.09C199.526 171.09 201.702 170.733 200.093 168.919C198.483 167.106 198.467 163.622 192.965 165.195C189.91 166.069 186.089 167.959 183.296 169.466C180.161 171.158 179.197 175.309 181.406 178.107C182.067 178.944 182.954 179.618 184.145 179.93Z" fill="#2F2E41"/>
<path d="M232.727 228.646C233.916 226.962 232.768 224.099 230.164 222.252C227.56 220.405 224.485 220.273 223.296 221.957C222.107 223.641 223.254 226.503 225.858 228.35C228.463 230.197 231.538 230.33 232.727 228.646Z" fill="#A0616A"/>
<path d="M214.524 182.621L215.368 185.16H214.524C214.524 185.16 215.579 190.871 212.202 191.717C208.825 192.564 205.709 187.169 205.709 187.169L204.182 187.91C204.182 187.91 205.448 194.256 200.805 195.102C196.161 195.948 194.473 190.448 194.473 190.448L183.498 191.294L183.92 187.91L193.863 188.906C193.863 188.906 193.629 186.217 199.538 185.794L207.981 184.102L214.524 182.621Z" fill="#2F2E41"/>
<path d="M179.383 195.961L179.116 200.53L193.775 195.791L193.897 200.425L176.395 212.735C176.395 212.735 171.306 205.496 170.704 202.991C170.103 200.487 170.416 196.626 170.416 196.626L179.383 195.961Z" fill="#A0616A"/>
<path d="M181.582 188.42C181.582 188.42 176.424 183.357 173.718 187.518C171.013 191.68 169.576 198.957 169.576 198.957L180.286 197.822L181.582 188.42Z" fill="#FF6F61"/>
<path d="M176.927 183.873C178.126 187.108 178.222 190.742 177.197 194.036C179.639 193.552 181.683 191.711 182.797 189.48C183.911 187.248 184.179 184.668 183.973 182.181L183.966 182.107C183.643 178.37 185.769 174.846 189.258 173.49C191.612 172.576 193.798 171.228 195.653 169.513C196.701 168.544 197.714 167.25 197.488 165.84C197.28 164.54 196.1 163.649 194.977 162.965C192.415 161.404 189.585 160.156 186.594 159.935C183.604 159.714 180.428 160.638 178.408 162.859C176.387 165.08 175.824 168.687 177.514 171.169C176.766 171.212 176.086 171.817 175.955 172.557C175.825 173.297 176.257 174.099 176.945 174.397C176.482 174.257 176.044 174.803 176.097 175.285C176.149 175.767 176.508 176.152 176.86 176.486C177.361 176.961 177.921 177.467 177.704 178.309C177.617 178.647 177.412 178.943 177.144 179.166C176.495 179.706 175.649 179.805 174.836 179.892C176.279 180.763 177.16 182.49 177.02 184.173" fill="#2F2E41"/>
<path d="M197.197 199.208C199.439 196.933 200.07 193.914 198.606 192.464C197.142 191.014 194.137 191.682 191.895 193.957C189.653 196.231 189.022 199.251 190.486 200.701C191.95 202.151 194.955 201.482 197.197 199.208Z" fill="#A0616A"/>
<path d="M322.667 90.0836C321.452 90.7679 319.492 88.0613 319.047 89.3852C318.603 90.7091 319.679 96.0511 320.234 97.3322C320.51 97.969 320.901 98.5515 321.171 99.1905C321.442 99.8296 321.587 100.564 321.348 101.216C320.931 102.35 319.557 102.811 318.875 103.807C318.081 104.968 318.402 106.532 318.773 107.889C319.093 109.059 319.434 110.239 320.049 111.283C320.665 112.327 321.594 113.237 322.754 113.582C324.231 114.022 325.809 113.499 327.233 112.909C328.602 112.342 329.957 111.698 331.121 110.78C332.285 109.862 333.257 108.644 333.664 107.216C334.174 105.425 333.748 103.466 332.864 101.827C331.98 100.189 330.672 98.8243 329.331 97.5358C327.071 95.3656 324.666 93.3472 322.137 91.4986" fill="#2F2E41"/>
<path d="M340.736 181.971L338.204 205.664C338.204 205.664 344.113 217.933 337.782 232.741L337.359 241.203L330.183 240.356L331.872 233.164L328.073 203.971L325.118 182.817L340.736 181.971Z" fill="#FFB6B6"/>
<path d="M320.475 181.548C320.475 181.548 322.163 200.164 318.786 209.895C318.786 209.895 320.475 224.702 315.831 240.356V252.011L308.233 250.51L308.655 206.933L306.545 183.24L320.475 181.548Z" fill="#FFB6B6"/>
<path d="M319.395 109.091C321.535 111.793 325.308 112.576 328.352 110.967C332.699 108.672 338.632 106.041 339.681 108.143C341.37 111.528 341.37 114.813 341.37 114.813L343.058 154.259C343.058 154.259 343.902 170.186 333.349 168.781C322.796 167.375 306.333 173.298 306.333 173.298L308.015 155.823L312.505 149.234L314.324 130.331L311.188 115.124L314.987 113.432C314.987 113.432 315.409 110.47 316.675 110.47C317.942 110.47 318.248 107.625 319.361 109.048L319.395 109.091Z" fill="#FF6F61"/>
<path d="M341.581 153.625L342.425 200.814C342.425 200.814 334.827 212.66 326.806 202.929L322.163 179.433L321.319 206.737C321.319 206.737 309.922 212.66 306.545 208.006L306.333 173.298L314.143 157.432L341.581 153.625Z" fill="#2F2E41"/>
<path d="M337.608 236.217C337.608 236.217 340.314 238.241 339.47 240.779C338.626 243.318 332.294 253.049 326.806 251.78C321.319 250.51 323.852 247.549 323.852 247.549L330.183 238.241C330.183 238.241 332.716 238.664 333.982 239.51C335.249 240.356 337.608 236.217 337.608 236.217Z" fill="#2F2E41"/>
<path d="M315.831 248.395C315.831 248.395 320.475 253.049 317.942 255.164C315.409 257.28 298.102 258.972 298.524 256.434C298.946 253.895 307.811 246.703 307.811 246.703C307.811 246.703 310.344 245.857 311.188 247.972C312.032 250.087 315.831 248.395 315.831 248.395Z" fill="#2F2E41"/>
<path d="M325.702 107.836C330.571 107.836 334.518 103.88 334.518 99.0005C334.518 94.1207 330.571 90.1648 325.702 90.1648C320.833 90.1648 316.887 94.1207 316.887 99.0005C316.887 103.88 320.833 107.836 325.702 107.836Z" fill="#FFB6B6"/>
<path d="M335.64 112.838C333.582 115.78 332.53 119.415 332.697 123.004C330.364 121.871 328.79 119.478 328.254 116.936C327.718 114.394 328.127 111.725 328.988 109.274C328.997 109.25 329.005 109.225 329.014 109.201C330.321 105.523 329.107 101.412 325.948 99.1252C323.818 97.5829 321.971 95.648 320.553 93.4301C319.752 92.1779 319.072 90.6072 319.67 89.2462C320.221 87.9921 321.645 87.406 322.955 87.0138C325.946 86.1182 329.124 85.6086 332.195 86.1753C335.265 86.742 338.221 88.5117 339.672 91.2822C341.123 94.0527 340.743 97.8338 338.387 99.8877C339.13 100.128 339.656 100.918 339.593 101.698C339.53 102.477 338.884 103.171 338.112 103.289C338.616 103.271 338.913 103.936 338.733 104.408C338.554 104.88 338.091 105.173 337.649 105.416C337.02 105.762 336.322 106.123 336.319 107.029C336.318 107.393 336.448 107.745 336.659 108.041C337.17 108.756 337.997 109.078 338.792 109.381C337.11 109.877 335.768 111.384 335.467 113.116" fill="#2F2E41"/>
<path d="M333.056 162.543C331.119 163.984 328.807 164.151 327.892 162.915C326.977 161.68 327.805 159.51 329.743 158.068C330.509 157.481 331.404 157.087 332.354 156.918L340.638 150.914L343.366 154.87L334.91 160.37C334.474 161.232 333.838 161.977 333.056 162.543Z" fill="#FFB6B6"/>
<path d="M338.275 113.644C338.275 113.644 344.958 113.855 346.224 118.509C347.49 123.163 350.023 133.082 349.601 146.855C349.601 146.855 351.712 155.74 346.224 155.317L338.626 158.702L333.56 151.932L337.782 146.855L338.275 113.644Z" fill="#FF6F61"/>
<path d="M145.867 263.619L139.549 249.928L132.541 253.461L136.479 265.836L143.508 269.277L145.867 263.619Z" fill="#FFB6B6"/>
<path d="M96.005 224.445C96.5678 224.699 98.2795 225.724 100.384 225.378C101.82 225.142 102.785 224.375 103.104 224.136C107.062 221.165 119.119 218.623 128.148 221.41C130.193 222.041 131.436 222.746 132.419 223.804C133.813 225.304 134.043 226.825 135.152 230.592C135.759 232.653 136.526 234.663 137.151 236.718C140.81 248.75 143.211 250.445 141.858 253.405C140.356 256.69 135.569 258.611 133.275 257.378C132.335 256.873 132.195 256.045 131.364 254.172C128.925 248.68 127.047 248.868 125.389 244.736C123.453 239.913 124.954 237.016 123.308 236.299C121.781 235.634 120.197 237.997 115.636 240.264C113.548 241.301 112.203 241.639 108.071 242.767C91.98 247.161 91.5507 247.719 88.6909 247.51C87.4396 247.418 78.5589 246.768 76.9268 242.204C74.3728 235.063 90.9343 222.155 96.005 224.445Z" fill="#2F2E41"/>
<path d="M142.024 264.841C142.869 264.772 143.857 264.691 144.443 263.906C144.84 263.375 144.993 262.601 144.789 261.956C144.554 261.212 143.927 260.902 143.99 260.808C144.086 260.664 145.613 261.276 147.101 262.482C147.382 262.71 148.647 263.759 149.985 265.863C151.057 267.548 150.775 267.71 151.468 268.708C153.595 271.773 156.841 271.106 157.704 273.578C158.037 274.533 157.919 275.677 157.367 276.441C156.258 277.974 153.602 277.694 152.156 277.523C148.675 277.112 146.448 275.648 144.054 274.313C135.911 269.775 130.574 269.379 130.633 267.137C130.645 266.713 130.834 266.816 132.489 264.26C134.122 261.738 134.368 260.973 135.008 260.952C135.97 260.92 136.003 262.632 137.948 263.906C139.672 265.034 141.476 264.886 142.024 264.841Z" fill="#2F2E41"/>
<path d="M117.325 290.631L119.768 275.747L111.989 274.726L108.315 287.182L112.203 293.985L117.325 290.631Z" fill="#FFB6B6"/>
<path d="M97.1702 230.154C97.4934 230.681 98.3359 232.492 100.271 233.39C101.592 234.003 102.819 233.912 103.218 233.893C108.157 233.663 119.558 238.345 125.468 245.733C126.806 247.406 127.44 248.689 127.66 250.117C127.973 252.143 127.311 253.531 126.119 257.273C125.467 259.32 124.975 261.415 124.341 263.467C120.627 275.482 121.664 278.236 118.886 279.923C115.803 281.796 110.766 280.692 109.558 278.38C109.063 277.434 109.412 276.669 109.773 274.651C110.832 268.735 109.173 267.833 110.116 263.481C111.216 258.401 114.081 256.848 113.121 255.329C112.23 253.919 109.596 254.983 104.551 254.291C102.243 253.975 100.94 253.497 96.8891 252.105C81.1127 246.685 80.4449 246.905 78.1959 245.122C77.2119 244.342 69.9948 238.739 71.4343 234.111C78.0361 212.885 94.2577 225.405 97.1702 230.154Z" fill="#2F2E41"/>
<path d="M112.616 289.48C113.354 289.898 114.217 290.387 115.142 290.068C115.768 289.852 116.328 289.297 116.521 288.649C116.743 287.901 116.397 287.291 116.503 287.249C116.663 287.184 117.584 288.55 118.139 290.385C118.243 290.732 118.703 292.312 118.631 294.805C118.574 296.803 118.25 296.779 118.264 297.995C118.307 301.728 121.367 303.003 120.696 305.534C120.437 306.511 119.697 307.392 118.813 307.713C117.036 308.358 114.995 306.631 113.895 305.676C111.245 303.377 110.222 300.911 108.989 298.46C104.793 290.121 100.599 286.79 101.905 284.969C102.152 284.624 102.25 284.816 105.052 283.632C107.817 282.465 108.449 281.97 108.99 282.312C109.804 282.827 108.872 284.263 109.768 286.412C110.563 288.316 112.138 289.209 112.616 289.48Z" fill="#2F2E41"/>
<path d="M89.8903 159.352L100.742 158.575L104.101 164.013L114.177 166.861L110.431 193.146L113.213 221.122C113.213 221.122 99.9669 230.307 98.9334 234.45C97.8999 238.593 72.5794 230.307 72.5794 230.307L81.2349 203.504L80.4598 182.528L78.1344 170.357L88.7277 165.437L89.8903 159.352Z" fill="#3F3D56"/>
<path d="M84.9812 167.12C84.9812 167.12 76.3339 166.991 75.1672 170.616C74.0004 174.242 70.1248 199.361 70.1248 199.361L67.1536 210.367L80.4597 203.763L77.6176 199.368L86.919 181.493L84.9812 167.12Z" fill="#3F3D56"/>
<path d="M90.2714 207.389C91.7012 207.39 93.0304 206.564 93.5863 205.244C94.0067 204.245 93.9671 203.287 93.6525 202.466C93.7537 202.424 93.8541 202.38 93.9577 202.343C93.8055 202.281 93.6575 202.211 93.5096 202.141C92.9946 201.112 92.0071 200.366 90.831 200.184C89.3742 198.62 88.4787 196.525 88.4693 194.218C88.4501 189.464 92.2975 185.494 97.0391 185.38C97.0765 185.379 97.1137 185.378 97.151 185.378C99.2742 185.353 101.2 186.543 102.276 188.378C102.904 189.449 104.064 190.168 105.393 190.168C106.41 190.168 107.328 189.746 107.984 189.068C109.413 187.591 111.203 186.491 113.229 186.154C114.559 185.932 115.936 185.849 117.344 185.919C126.987 186.4 135.283 194.965 135.489 204.639C135.718 215.414 127.072 224.221 116.373 224.221C110.807 224.221 105.798 221.835 102.305 218.029C100.754 216.339 98.5811 215.393 96.2904 215.416C96.2671 215.416 96.2438 215.416 96.2204 215.416C92.5104 215.416 89.5028 212.402 89.5028 208.683C89.5028 208.477 89.513 208.273 89.5322 208.072C89.568 207.696 89.8945 207.388 90.2714 207.389Z" fill="#FF6F61"/>
<path d="M122.058 201.691L57.723 189.52L57.4646 194.182L121.283 209.46L122.058 201.691Z" fill="#FF6F61"/>
<path d="M58.4981 190.297L57.723 189.52C57.723 189.52 54.3641 187.967 54.3641 187.708C54.3641 187.545 49.4043 185.862 45.6935 184.624C43.621 183.934 41.4324 185.301 41.1373 187.47L40.6723 190.888C40.3942 192.931 41.9327 194.771 43.989 194.853L53.0723 195.217L57.4646 194.182L58.4981 190.297Z" fill="#FF6F61"/>
<path d="M121.928 203.116L122.082 202.471L57.7061 190.135L57.5938 190.945L121.928 203.116Z" fill="#3F3D56"/>
<path d="M121.781 204.341L121.928 203.634L57.6361 191.412L57.5938 192.24L121.781 204.341Z" fill="#3F3D56"/>
<path d="M121.634 205.809L121.67 204.669L57.5856 192.342L57.5938 193.016L121.634 205.809Z" fill="#3F3D56"/>
<path d="M121.462 207.514L121.412 206.482L57.4921 193.271L57.4371 193.524L121.462 207.514Z" fill="#3F3D56"/>
<path d="M121.461 208.548L121.412 207.777L57.5883 193.699L57.531 193.951L121.461 208.548Z" fill="#3F3D56"/>
<path d="M84.493 165.469L87.6941 163.693L89.0826 192.11L88.5984 195.606C88.5984 195.606 80.5167 173.27 84.493 165.469Z" fill="#3F3D56"/>
<path d="M96.2896 156.632C100.713 156.632 104.299 153.038 104.299 148.605C104.299 144.171 100.713 140.577 96.2896 140.577C91.866 140.577 88.28 144.171 88.28 148.605C88.28 153.038 91.866 156.632 96.2896 156.632Z" fill="#FFB6B6"/>
<path d="M88.5985 153.395L90.5133 154.928L88.3401 146.663C88.3401 146.663 94.4118 146.533 94.9286 143.167C94.9286 143.167 99.7085 143.037 101 143.037C102.292 143.037 102.875 151.605 102.875 151.605C102.875 151.605 105.393 144.591 102.809 140.965C100.225 137.34 101.13 139.541 100.613 138.246C100.096 136.952 94.7994 135.761 91.4405 137.081C88.0817 138.401 87.9525 140.283 86.919 140.301C85.8855 140.318 82.2683 145.497 85.6272 149.641C88.986 153.784 88.5985 153.395 88.5985 153.395Z" fill="#2F2E41"/>
<path d="M113.912 206.075C114.862 205.316 115.561 204.405 115.955 203.504L125.455 196.844L122.161 192.406L112.879 199.64C111.916 199.826 110.874 200.307 109.924 201.066C107.756 202.801 106.89 205.328 107.991 206.711C109.093 208.095 111.744 207.81 113.912 206.075Z" fill="#FFB6B6"/>
<path d="M77.5176 195.945C76.8131 196.936 76.3906 198.005 76.2586 198.98L68.9527 208.001L73.3375 211.36L80.2766 201.847C81.1523 201.403 82.0217 200.653 82.7262 199.662C84.3354 197.396 84.474 194.728 83.0357 193.701C81.5974 192.675 79.1268 193.679 77.5176 195.945Z" fill="#FFB6B6"/>
<path d="M110.043 168.545C110.043 168.545 112.369 164.66 114.694 166.991C116.534 168.835 126.625 180.57 130.757 185.388C131.896 186.717 132.522 188.41 132.522 190.162C132.522 192.872 131.029 195.36 128.641 196.631L115.728 203.504L112.11 198.066L123.22 190.038L106.168 180.716L110.043 168.545Z" fill="#3F3D56"/>
<path d="M69.2104 204.341L67.1536 210.367L73.0961 213.474L77.6176 210.367L80.4597 203.763L72.0626 201.303" fill="#3F3D56"/>
<path d="M298.049 109.42C297.808 106.891 298.915 104.716 300.522 104.562C302.128 104.409 303.625 106.336 303.865 108.866C303.975 109.876 303.842 110.897 303.477 111.845L304.361 122.576L299.328 122.885L298.991 112.273C298.454 111.411 298.131 110.433 298.049 109.42Z" fill="#FFB6B6"/>
<path d="M325.471 114.511C325.471 114.511 317.248 109.663 315.555 110.39C313.862 111.117 305.639 123.48 305.639 123.48L304.883 121.224L299.109 121.783C299.109 121.783 295.723 137.54 303.22 136.086C310.718 134.631 323.053 121.056 323.053 121.056L325.471 114.511Z" fill="#FF6F61"/>
<path d="M286.187 116.281L297.556 113.632L298.37 115.999L303.87 114.51L307.498 113.527L311.021 106.668L308.521 99.4058L301.078 99.3359L298.801 99.7845L292.452 101.036C291.915 101.927 292.208 103.087 293.105 103.613L293.399 103.786L284.466 105.336C284.466 105.336 281.613 110.426 286.187 116.281Z" fill="#3F3D56"/>
<path d="M298.801 99.7845L303.87 114.51L307.498 113.527L311.021 106.668L308.521 99.4058L301.078 99.3359L298.801 99.7845Z" fill="#2F2E41"/>
<path d="M296.878 100.398C297.661 100.225 298.225 99.766 298.138 99.3738C298.052 98.9817 297.347 98.8045 296.565 98.9781C295.782 99.1517 295.218 99.6104 295.305 100.003C295.391 100.395 296.096 100.572 296.878 100.398Z" fill="#3F3D56"/>
</g>
<defs>
<clipPath id="clip0_679_2190">
<rect width="350" height="307.853" fill="white"/>
</clipPath>
</defs>
</svg>
